<svg id="visual" viewBox="0 0 1700 750" width="1700" height="750" xmlns="http://www.w3.org/2000/svg" xmlns:xlink="http://www.w3.org/1999/xlink" version="1.1"><rect x="0" y="0" width="1700" height="750" fill="#FFFFFF"></rect><path d="M0 542L23.7 562.2C47.3 582.3 94.7 622.7 141.8 622.5C189 622.3 236 581.7 283.2 572.8C330.3 564 377.7 587 425 590C472.3 593 519.7 576 566.8 586.3C614 596.7 661 634.3 708.2 631.3C755.3 628.3 802.7 584.7 850 583.7C897.3 582.7 944.7 624.3 991.8 644.8C1039 665.3 1086 664.7 1133.2 651.3C1180.3 638 1227.7 612 1275 593C1322.3 574 1369.7 562 1416.8 576.7C1464 591.3 1511 632.7 1558.2 645.3C1605.3 658 1652.7 642 1676.3 634L1700 626L1700 751L1676.3 751C1652.7 751 1605.3 751 1558.2 751C1511 751 1464 751 1416.8 751C1369.7 751 1322.3 751 1275 751C1227.7 751 1180.3 751 1133.2 751C1086 751 1039 751 991.8 751C944.7 751 897.3 751 850 751C802.7 751 755.3 751 708.2 751C661 751 614 751 566.8 751C519.7 751 472.3 751 425 751C377.7 751 330.3 751 283.2 751C236 751 189 751 141.8 751C94.7 751 47.3 751 23.7 751L0 751Z" fill="#2CD18A" stroke-linecap="round" stroke-linejoin="miter"></path></svg>