<svg id="visual" viewBox="0 0 1200 745" width="1200" height="745" xmlns="http://www.w3.org/2000/svg" xmlns:xlink="http://www.w3.org/1999/xlink" version="1.1"><path d="M0 622L22.2 607.3C44.3 592.7 88.7 563.3 133.2 564.8C177.7 566.3 222.3 598.7 266.8 619.5C311.3 640.3 355.7 649.7 400 640.8C444.3 632 488.7 605 533.2 601.3C577.7 597.7 622.3 617.3 666.8 609C711.3 600.7 755.7 564.3 800 547.5C844.3 530.7 888.7 533.3 933.2 542.2C977.7 551 1022.3 566 1066.8 581.5C1111.3 597 1155.7 613 1177.8 621L1200 629L1200 746L1177.8 746C1155.7 746 1111.3 746 1066.8 746C1022.3 746 977.7 746 933.2 746C888.7 746 844.3 746 800 746C755.7 746 711.3 746 666.8 746C622.3 746 577.7 746 533.2 746C488.7 746 444.3 746 400 746C355.7 746 311.3 746 266.8 746C222.3 746 177.7 746 133.2 746C88.7 746 44.3 746 22.2 746L0 746Z" fill="#2dde91" stroke-linecap="round" stroke-linejoin="miter"></path></svg>