<svg width="628" height="357" viewBox="0 0 628 357" fill="none" xmlns="http://www.w3.org/2000/svg">
<path d="M32.352 10.872V55.224H38.688V10.872H32.352ZM4.224 14.424V44.904H26.016V14.424H19.728V25.128H10.512V14.424H4.224ZM10.512 30.072H19.728V39.864H10.512V30.072ZM69.2123 23.784V28.92H76.8443V43.224H83.1803V10.92H76.8443V23.784H69.2123ZM49.0523 14.232V19.272H62.8283C61.7723 25.752 55.9643 31.032 46.7483 33.912L49.3403 39C62.2043 34.92 69.5963 26.184 69.5963 14.232H49.0523ZM60.6203 49.32V40.056H54.2843V54.36H84.2843V49.32H60.6203ZM114.941 39.816C111.725 39.816 109.565 36.312 109.565 29.736C109.565 23.208 111.725 19.704 114.941 19.704C118.205 19.704 120.365 23.208 120.365 29.736C120.365 36.312 118.205 39.816 114.941 39.816ZM133.613 10.872V26.808H126.221C125.357 18.84 120.893 13.992 114.941 13.992C108.365 13.992 103.517 20.04 103.517 29.736C103.517 39.48 108.365 45.576 114.941 45.576C121.085 45.576 125.597 40.392 126.269 31.944H133.613V55.224H139.949V10.872H133.613ZM172.394 19.464V24.216H178.106V34.488H184.442V10.92H178.106V19.464H172.394ZM174.554 26.088C172.442 26.568 170.522 26.76 167.45 26.808V17.592H173.546V12.696H161.21V31.704H163.61C169.466 31.704 171.962 31.656 175.034 30.888L174.554 26.088ZM159.626 26.088C157.562 26.472 155.738 26.664 153.866 26.76V17.592H159.194V12.696H147.626V31.704H149.882C153.626 31.704 156.506 31.656 160.058 30.936L159.626 26.088ZM168.698 50.904C164.762 50.904 162.554 50.328 162.554 48.984C162.554 47.64 164.762 47.064 168.698 47.064C172.682 47.064 174.842 47.64 174.842 48.984C174.842 50.328 172.682 50.904 168.698 50.904ZM168.698 42.744C160.634 42.744 155.786 44.952 155.786 48.984C155.786 53.016 160.634 55.176 168.698 55.176C176.81 55.176 181.658 53.016 181.658 48.984C181.658 44.952 176.81 42.744 168.698 42.744ZM171.962 36.648V33.192H165.626V36.648H152.522V41.4H185.018V36.648H171.962ZM213.862 27.816H208.918C209.974 24.216 210.358 20.328 210.358 16.152H193.03V21.192H204.07C203.302 29.832 199.414 36.216 190.582 41.496L194.182 45.96C200.422 42.312 204.454 37.944 206.95 32.904H213.862V53.16H219.766V11.88H213.862V27.816ZM223.174 10.872V55.08H229.174V10.872H223.174ZM264.919 14.328H258.583V20.76C258.583 29.352 254.935 37.896 247.207 41.208L250.999 46.44C256.279 43.944 259.879 39.192 261.847 33.288C263.815 38.712 267.223 43.08 272.311 45.384L275.911 40.248C268.423 37.032 264.919 28.968 264.919 20.76V14.328ZM278.071 10.872V55.224H284.407V10.872H278.071ZM318.339 31.128C311.379 28.872 308.355 23.64 308.211 18.552H316.851V13.512H292.947V18.552H301.731C301.587 24.024 298.467 29.544 291.267 31.896L294.579 36.84C299.667 35.16 303.123 31.752 305.091 27.48C307.011 31.368 310.323 34.488 315.123 36.024L318.339 31.128ZM297.219 44.568H320.403V55.176H326.739V39.528H297.219V44.568ZM332.595 21.576H326.739V10.92H320.403V37.56H326.739V26.808H332.595V21.576ZM348.863 40.92C345.887 40.92 343.679 38.904 343.679 35.544C343.679 32.184 345.887 30.12 348.863 30.12C351.839 30.12 353.999 32.184 353.999 35.496C353.999 38.904 351.839 40.92 348.863 40.92ZM348.863 24.984C342.431 24.984 337.631 29.352 337.631 35.496C337.631 41.736 342.431 46.104 348.863 46.104C355.247 46.104 359.999 41.736 359.999 35.496C359.999 29.352 355.247 24.984 348.863 24.984ZM351.983 11.688H345.647V17.448H335.855V22.488H361.583V17.448H351.983V11.688ZM377.135 28.2H370.799V10.92H364.463V55.128H370.799V33.432H377.135V28.2ZM397.34 20.376H406.46V15.144H381.692V20.376H390.908V22.824C390.908 30.36 387.308 38.472 379.916 41.784L383.516 46.824C388.7 44.472 392.252 39.624 394.22 33.864C396.188 39.192 399.692 43.512 404.828 45.72L408.284 40.728C400.892 37.656 397.34 30.024 397.34 22.824V20.376ZM410.54 10.92V55.128H416.876V10.92H410.54ZM430.922 39.6328V37.8984C430.922 37.1016 431 36.3828 431.156 35.7422C431.328 35.0859 431.578 34.4688 431.906 33.8906C432.25 33.2969 432.688 32.7266 433.219 32.1797C433.75 31.6172 434.391 31.0391 435.141 30.4453C435.797 29.9297 436.352 29.4688 436.805 29.0625C437.258 28.6562 437.625 28.2578 437.906 27.8672C438.188 27.4609 438.391 27.0391 438.516 26.6016C438.641 26.1641 438.703 25.6562 438.703 25.0781C438.703 24.1875 438.398 23.4531 437.789 22.875C437.195 22.2969 436.281 22.0078 435.047 22.0078C433.969 22.0078 432.805 22.2344 431.555 22.6875C430.32 23.1406 429.039 23.6953 427.711 24.3516L425.32 19.1719C425.992 18.7812 426.719 18.4141 427.5 18.0703C428.297 17.7109 429.117 17.3984 429.961 17.1328C430.82 16.8516 431.688 16.6328 432.562 16.4766C433.438 16.3203 434.297 16.2422 435.141 16.2422C436.734 16.2422 438.172 16.4375 439.453 16.8281C440.734 17.2031 441.82 17.7578 442.711 18.4922C443.602 19.2266 444.281 20.1172 444.75 21.1641C445.234 22.2109 445.477 23.4062 445.477 24.75C445.477 25.7344 445.367 26.6172 445.148 27.3984C444.93 28.1641 444.602 28.8828 444.164 29.5547C443.742 30.2109 443.203 30.8516 442.547 31.4766C441.906 32.0859 441.156 32.7344 440.297 33.4219C439.641 33.9375 439.102 34.3906 438.68 34.7812C438.273 35.1562 437.953 35.5156 437.719 35.8594C437.484 36.2031 437.32 36.5625 437.227 36.9375C437.148 37.2969 437.109 37.7266 437.109 38.2266V39.6328H430.922ZM430.148 47.6484C430.148 46.9141 430.25 46.2969 430.453 45.7969C430.672 45.2812 430.969 44.8672 431.344 44.5547C431.719 44.2422 432.156 44.0156 432.656 43.875C433.172 43.7344 433.719 43.6641 434.297 43.6641C434.844 43.6641 435.359 43.7344 435.844 43.875C436.344 44.0156 436.781 44.2422 437.156 44.5547C437.531 44.8672 437.828 45.2812 438.047 45.7969C438.266 46.2969 438.375 46.9141 438.375 47.6484C438.375 48.3516 438.266 48.9531 438.047 49.4531C437.828 49.9531 437.531 50.3672 437.156 50.6953C436.781 51.0234 436.344 51.2578 435.844 51.3984C435.359 51.5547 434.844 51.6328 434.297 51.6328C433.719 51.6328 433.172 51.5547 432.656 51.3984C432.156 51.2578 431.719 51.0234 431.344 50.6953C430.969 50.3672 430.672 49.9531 430.453 49.4531C430.25 48.9531 430.148 48.3516 430.148 47.6484Z" fill="#00203F"/>
<path d="M33.12 111.304V154.792H38.112V111.304H33.12ZM4.752 114.904V144.472H25.584V114.904H20.64V125.944H9.648V114.904H4.752ZM9.648 129.88H20.64V140.488H9.648V129.88ZM69.0203 124.36V128.44H77.5643V143.272H82.5083V111.352H77.5643V124.36H69.0203ZM49.3883 114.664V118.696H63.9323C63.0203 125.8 56.6843 131.56 47.1323 134.68L49.2923 138.616C61.6283 134.584 69.2603 126.088 69.2603 114.664H49.3883ZM59.6603 149.848V140.056H54.7163V153.88H83.6123V149.848H59.6603ZM113.206 140.68C109.51 140.68 106.966 136.648 106.966 129.784C106.966 123.064 109.51 118.984 113.206 118.984C116.95 118.984 119.494 123.064 119.494 129.784C119.494 136.648 116.95 140.68 113.206 140.68ZM132.55 111.304V127.48H124.102C123.43 119.512 119.014 114.52 113.206 114.52C106.822 114.52 102.262 120.472 102.262 129.784C102.262 139.192 106.822 145.096 113.206 145.096C119.158 145.096 123.574 139.912 124.15 131.512H132.55V154.792H137.542V111.304H132.55ZM170.322 120.088V123.832H177.138V134.44H182.082V111.352H177.138V120.088H170.322ZM173.298 126.76C170.562 127.384 168.21 127.576 164.754 127.624V117.208H171.954V113.32H159.906V131.512H162.114C167.346 131.512 170.178 131.416 173.682 130.648L173.298 126.76ZM158.13 126.808C155.73 127.336 153.522 127.528 151.458 127.576V117.208H157.698V113.32H146.562V131.512H148.578C151.746 131.512 154.77 131.464 158.562 130.696L158.13 126.808ZM167.01 151.336C162.45 151.336 159.81 150.424 159.81 148.6C159.81 146.728 162.45 145.816 167.01 145.816C171.57 145.816 174.21 146.728 174.21 148.6C174.21 150.424 171.57 151.336 167.01 151.336ZM167.01 142.408C159.186 142.408 154.578 144.616 154.578 148.6C154.578 152.584 159.186 154.744 167.01 154.744C174.882 154.744 179.442 152.584 179.442 148.6C179.442 144.616 174.882 142.408 167.01 142.408ZM169.554 136.936V133.096H164.562V136.936H151.41V140.728H182.706V136.936H169.554ZM213.086 128.584H206.702C207.95 124.888 208.526 120.904 208.526 116.68H191.678V120.664H203.63C202.91 129.544 198.638 136.648 189.614 142.024L192.446 145.528C198.446 141.928 202.574 137.56 205.118 132.568H213.086V152.632H217.742V112.408H213.086V128.584ZM222.158 111.352V154.696H226.91V111.352H222.158ZM260.776 114.952H255.832V122.056C255.832 130.408 251.32 138.712 244.408 141.832L247.336 145.96C252.568 143.416 256.408 138.28 258.376 131.992C260.344 137.848 264.136 142.648 269.128 145L272.008 141.064C265.192 137.992 260.776 130.024 260.776 122.056V114.952ZM275.464 111.304V154.792H280.456V111.304H275.464ZM314.436 131.944C307.812 129.736 304.164 124.408 304.164 118.936V118.168H313.236V114.136H289.956V118.168H299.172V118.936C299.172 124.888 295.38 130.408 288.516 132.712L291.108 136.6C296.196 134.824 299.796 131.272 301.716 126.712C303.588 130.84 307.044 134.152 311.892 135.736L314.436 131.944ZM294.276 143.56H317.844V154.696H322.788V139.576H294.276V143.56ZM328.932 122.392H322.788V111.304H317.844V137.464H322.788V126.472H328.932V122.392ZM345.728 141.304C342.224 141.304 339.68 138.904 339.68 135.256C339.68 131.608 342.224 129.208 345.728 129.208C349.232 129.208 351.776 131.608 351.776 135.256C351.776 138.904 349.232 141.304 345.728 141.304ZM345.728 125.128C339.488 125.128 334.976 129.352 334.976 135.256C334.976 141.208 339.488 145.384 345.728 145.384C351.92 145.384 356.48 141.208 356.48 135.256C356.48 129.352 351.92 125.128 345.728 125.128ZM348.128 111.976H343.184V118.024H332.864V122.056H358.256V118.024H348.128V111.976ZM373.424 128.776H366.752V111.352H361.76V154.744H366.752V132.904H373.424V128.776ZM393.245 119.752H402.893V115.672H378.605V119.752H388.253V123.88C388.253 131.32 383.789 139.384 377.069 142.504L379.901 146.44C384.989 143.992 388.877 138.856 390.797 132.808C392.813 138.424 396.701 143.128 401.741 145.336L404.477 141.448C397.709 138.568 393.245 131.08 393.245 123.88V119.752ZM407.933 111.352V154.696H412.925V111.352H407.933ZM427.513 139.72H432.361C431.545 132.568 440.089 129.976 440.089 122.968C440.089 117.352 436.201 114.184 430.633 114.184C426.649 114.184 423.433 116.104 421.081 118.792L424.201 121.624C425.785 119.848 427.753 118.696 430.009 118.696C433.033 118.696 434.713 120.712 434.713 123.352C434.713 128.584 426.361 131.656 427.513 139.72ZM430.009 151.624C432.073 151.624 433.705 150.04 433.705 147.784C433.705 145.528 432.073 143.848 430.009 143.848C427.897 143.848 426.313 145.528 426.313 147.784C426.313 150.04 427.897 151.624 430.009 151.624Z" fill="#00203F"/>
<path d="M33.84 211.496V254.6H37.776V211.496H33.84ZM4.992 215.144V244.184H25.248V215.144H21.36V226.52H8.88V215.144H4.992ZM8.88 229.64H21.36V240.968H8.88V229.64ZM68.8763 224.792V228.008H78.1883V243.32H82.1723V211.544H78.1883V224.792H68.8763ZM49.5323 214.856V218.072H64.8443C63.9803 225.8 57.2123 231.944 47.3723 235.208L49.0523 238.376C61.2443 234.344 69.0683 225.944 69.0683 214.856H49.5323ZM58.8923 250.376V240.104H54.9563V253.592H83.2763V250.376H58.8923ZM113.111 241.352C108.983 241.352 106.103 236.84 106.103 229.832C106.103 222.872 108.983 218.36 113.111 218.36C117.191 218.36 120.071 222.872 120.071 229.832C120.071 236.84 117.191 241.352 113.111 241.352ZM133.127 211.496V227.912H123.767C123.143 219.848 118.919 214.808 113.111 214.808C106.823 214.808 102.359 220.664 102.359 229.832C102.359 239 106.823 244.856 113.111 244.856C119.111 244.856 123.383 239.576 123.767 231.128H133.127V254.648H137.063V211.496H133.127ZM169.987 220.472V223.496H177.667V234.392H181.603V211.544H177.667V220.472H169.987ZM173.587 227.24C170.419 227.96 167.587 228.152 163.939 228.2V216.728H171.955V213.608H160.051V231.32H162.163C166.963 231.32 170.083 231.176 173.923 230.312L173.587 227.24ZM158.227 227.288C155.395 227.912 152.899 228.104 150.787 228.152V216.728H157.651V213.608H146.899V231.32H148.819C151.459 231.32 154.627 231.272 158.563 230.408L158.227 227.288ZM167.011 251.72C161.923 251.72 158.947 250.52 158.947 248.408C158.947 246.2 161.923 245 167.011 245C172.051 245 175.075 246.2 175.075 248.408C175.075 250.52 172.051 251.72 167.011 251.72ZM167.011 242.216C159.331 242.216 154.867 244.376 154.867 248.408C154.867 252.392 159.331 254.552 167.011 254.552C174.691 254.552 179.155 252.392 179.155 248.408C179.155 244.376 174.691 242.216 167.011 242.216ZM169.027 237.176V233.096H165.091V237.176H151.699V240.2H182.371V237.176H169.027ZM213.759 229.112H206.319C207.759 225.272 208.383 221.192 208.383 216.968H191.775V220.184H204.495C203.775 229.208 199.167 236.936 189.951 242.456L192.255 245.288C198.207 241.736 202.335 237.272 204.927 232.28H213.759V252.392H217.503V212.648H213.759V229.112ZM222.735 211.496V254.552H226.479V211.496H222.735ZM260.058 215.24H256.17V222.968C256.17 231.128 250.938 239.384 244.602 242.408L247.002 245.624C252.042 243.032 256.17 237.656 258.138 231.176C260.202 237.32 264.33 242.408 269.226 244.808L271.578 241.64C265.194 238.76 260.058 230.84 260.058 222.968V215.24ZM276.09 211.496V254.648H280.026V211.496H276.09ZM313.958 232.568C307.622 230.408 303.494 225.08 303.494 219.368V217.688H312.998V214.52H289.91V217.688H299.558V219.416C299.558 225.56 295.238 231.128 288.758 233.384L290.822 236.504C295.862 234.632 299.75 230.84 301.574 226.04C303.446 230.456 307.142 233.96 311.942 235.64L313.958 232.568ZM294.326 242.936H318.422V254.6H322.358V239.768H294.326V242.936ZM328.742 222.824H322.358V211.544H318.422V237.464H322.358V226.088H328.742V222.824ZM345.731 241.688C341.843 241.688 339.011 238.904 339.011 235.064C339.011 231.176 341.843 228.392 345.731 228.392C349.667 228.392 352.499 231.176 352.499 235.064C352.499 238.904 349.667 241.688 345.731 241.688ZM345.731 225.128C339.683 225.128 335.315 229.256 335.315 235.064C335.315 240.92 339.683 244.952 345.731 244.952C351.875 244.952 356.243 240.92 356.243 235.064C356.243 229.256 351.875 225.128 345.731 225.128ZM347.651 212.024H343.715V218.408H332.867V221.576H358.259V218.408H347.651V212.024ZM373.331 229.208H366.275V211.544H362.339V254.552H366.275V232.52H373.331V229.208ZM392.623 219.176H402.751V215.912H378.703V219.176H388.687V224.648C388.687 232.088 383.455 240.2 377.263 243.128L379.567 246.296C384.463 243.8 388.687 238.376 390.655 232.088C392.719 237.992 396.943 242.936 401.935 245.24L404.143 242.072C397.807 239.384 392.623 231.944 392.623 224.648V219.176ZM408.559 211.544V254.552H412.495V211.544H408.559ZM427.419 240.392H431.307C430.443 232.856 439.083 230.024 439.083 222.968C439.083 217.736 435.531 214.424 430.107 214.424C426.219 214.424 423.147 216.296 420.939 218.84L423.435 221.144C425.115 219.224 427.227 218.072 429.627 218.072C433.035 218.072 434.811 220.376 434.811 223.256C434.811 228.968 426.315 232.04 427.419 240.392ZM429.483 251.624C431.259 251.624 432.699 250.28 432.699 248.312C432.699 246.344 431.259 244.904 429.483 244.904C427.755 244.904 426.315 246.344 426.315 248.312C426.315 250.28 427.755 251.624 429.483 251.624Z" fill="#00203F"/>
<path d="M35.376 311.88V354.216H36.96V311.88H35.376ZM5.568 315.672V343.656H24.624V315.672H23.04V327.768H7.152V315.672H5.568ZM7.152 329.208H23.04V342.216H7.152V329.208ZM79.6283 343.512H81.2123V311.88H79.6283V325.704H68.5403V327.144H79.6283V343.512ZM49.8203 315.24V316.68H66.7643C66.1883 325.752 58.3643 332.856 47.8043 336.552L48.5723 337.896C60.1883 333.816 68.4923 325.608 68.4923 315.24H49.8203ZM57.0683 351.624V340.248H55.4843V353.064H82.3163V351.624H57.0683ZM112.731 342.936C107.643 342.936 104.043 337.368 104.043 329.832C104.043 322.344 107.643 316.776 112.731 316.776C117.771 316.776 121.371 322.344 121.371 329.832C121.371 337.368 117.771 342.936 112.731 342.936ZM134.283 311.832V328.92H122.859C122.571 320.712 118.491 315.432 112.731 315.432C106.731 315.432 102.555 321.096 102.555 329.832C102.555 338.616 106.731 344.28 112.731 344.28C118.587 344.28 122.715 338.808 122.859 330.312H134.283V354.216H135.867V311.832H134.283ZM169.272 321.288V322.728H178.968V334.296H180.552V311.832H178.968V321.288H169.272ZM174.216 328.344C169.704 329.352 165.912 329.496 162.36 329.496H161.976V315.768H172.008V314.328H160.392V330.936H162.36C166.008 330.936 169.752 330.792 174.504 329.784L174.216 328.344ZM158.328 328.392C154.248 329.4 150.504 329.496 149.064 329.496V315.768H157.608V314.328H147.48V330.936H149.064C150.648 330.936 154.248 330.888 158.616 329.88L158.328 328.392ZM166.872 352.728C160.68 352.728 156.84 350.904 156.84 347.928C156.84 344.952 160.68 343.128 166.872 343.128C173.016 343.128 176.856 344.952 176.856 347.928C176.856 350.904 173.016 352.728 166.872 352.728ZM166.872 341.784C159.528 341.784 155.304 343.944 155.304 347.928C155.304 351.96 159.528 354.072 166.872 354.072C174.168 354.072 178.392 351.96 178.392 347.928C178.392 343.944 174.168 341.784 166.872 341.784ZM167.688 337.656V332.856H166.104V337.656H152.232V339.096H181.464V337.656H167.688ZM215.252 330.216H204.98C206.948 326.184 207.908 321.816 207.908 317.592H191.828V319.032H206.324C205.844 328.248 200.372 337.608 190.58 343.464L191.636 344.712C197.396 341.208 201.572 336.648 204.308 331.656H215.252V351.768H216.836V313.128H215.252V330.216ZM223.94 311.832V354.216H225.524V311.832H223.94ZM258.243 315.912H256.755V324.984C256.755 332.808 249.987 340.872 244.803 343.608L245.859 344.904C250.371 342.312 255.699 336.312 257.475 329.544C259.395 336.12 264.819 341.832 269.283 344.28L270.291 343.032C265.107 340.44 258.243 332.616 258.243 324.984V315.912ZM277.251 311.832V354.216H278.835V311.832H277.251ZM312.719 333.912C307.151 331.848 301.871 326.664 301.871 320.376V316.728H312.287V315.288H289.823V316.728H300.335V320.424C300.335 327.24 294.815 332.712 289.151 334.872L290.015 336.12C294.959 334.104 299.615 329.976 301.103 324.408C302.687 329.448 307.103 333.336 311.903 335.208L312.719 333.912ZM294.479 341.448H319.679V354.216H321.263V340.008H294.479V341.448ZM328.175 323.928H321.263V311.832H319.679V337.32H321.263V325.368H328.175V323.928ZM345.692 342.504C340.892 342.504 337.34 339 337.34 334.584C337.34 330.168 340.892 326.664 345.692 326.664C350.54 326.664 354.092 330.168 354.092 334.584C354.092 339 350.54 342.504 345.692 342.504ZM345.692 325.224C339.98 325.224 335.852 329.064 335.852 334.584C335.852 340.152 339.98 343.944 345.692 343.944C351.452 343.944 355.58 340.152 355.58 334.584C355.58 329.064 351.452 325.224 345.692 325.224ZM346.412 312.168H344.828V319.128H332.78V320.568H358.076V319.128H346.412V312.168ZM372.716 330.168H364.94V311.832H363.356V354.216H364.94V331.608H372.716V330.168ZM391 317.88H402.136V316.44H378.568V317.88H389.464V326.328C389.464 333.768 382.6 341.88 377.512 344.568L378.52 345.864C382.984 343.32 388.408 337.224 390.232 330.648C392.056 337.08 397.576 342.504 402.184 344.856L403.192 343.56C397.864 341.112 391 333.816 391 326.328V317.88ZM409.72 311.832V354.216H411.304V311.832H409.72ZM427.14 341.88H428.724C427.668 333.576 436.644 330.216 436.644 322.92C436.644 318.552 433.764 314.952 428.676 314.952C425.076 314.952 422.388 316.776 420.42 318.984L421.524 319.992C423.3 317.784 425.94 316.536 428.58 316.536C432.948 316.536 434.868 319.704 434.868 323.016C434.868 329.832 425.988 332.904 427.14 341.88ZM428.148 351.624C429.156 351.624 430.116 350.856 430.116 349.56C430.116 348.168 429.156 347.4 428.148 347.4C427.14 347.4 426.228 348.168 426.228 349.56C426.228 350.856 427.14 351.624 428.148 351.624Z" fill="#00203F"/>
<path d="M491.938 30.0156H486.094L486.062 26.7969H490.969C491.833 26.7969 492.542 26.6875 493.094 26.4688C493.646 26.2396 494.057 25.9115 494.328 25.4844C494.609 25.0469 494.75 24.5156 494.75 23.8906C494.75 23.1823 494.615 22.6094 494.344 22.1719C494.083 21.7344 493.672 21.4167 493.109 21.2188C492.557 21.0208 491.844 20.9219 490.969 20.9219H487.719V40H483.031V17.25H490.969C492.292 17.25 493.474 17.375 494.516 17.625C495.568 17.875 496.458 18.2552 497.188 18.7656C497.917 19.276 498.474 19.9219 498.859 20.7031C499.245 21.474 499.438 22.3906 499.438 23.4531C499.438 24.3906 499.224 25.2552 498.797 26.0469C498.38 26.8385 497.719 27.4844 496.812 27.9844C495.917 28.4844 494.745 28.7604 493.297 28.8125L491.938 30.0156ZM491.734 40H484.812L486.641 36.3438H491.734C492.557 36.3438 493.229 36.2135 493.75 35.9531C494.271 35.6823 494.656 35.3177 494.906 34.8594C495.156 34.401 495.281 33.875 495.281 33.2812C495.281 32.6146 495.167 32.0365 494.938 31.5469C494.719 31.0573 494.365 30.6823 493.875 30.4219C493.385 30.151 492.74 30.0156 491.938 30.0156H487.422L487.453 26.7969H493.078L494.156 28.0625C495.542 28.0417 496.656 28.2865 497.5 28.7969C498.354 29.2969 498.974 29.9479 499.359 30.75C499.755 31.5521 499.953 32.4115 499.953 33.3281C499.953 34.7865 499.635 36.0156 499 37.0156C498.365 38.0052 497.432 38.75 496.203 39.25C494.984 39.75 493.495 40 491.734 40ZM502.469 31.7188V31.3906C502.469 30.151 502.646 29.0104 503 27.9688C503.354 26.9167 503.87 26.0052 504.547 25.2344C505.224 24.4635 506.057 23.8646 507.047 23.4375C508.036 23 509.172 22.7812 510.453 22.7812C511.734 22.7812 512.875 23 513.875 23.4375C514.875 23.8646 515.714 24.4635 516.391 25.2344C517.078 26.0052 517.599 26.9167 517.953 27.9688C518.307 29.0104 518.484 30.151 518.484 31.3906V31.7188C518.484 32.9479 518.307 34.0885 517.953 35.1406C517.599 36.1823 517.078 37.0938 516.391 37.875C515.714 38.6458 514.88 39.2448 513.891 39.6719C512.901 40.099 511.766 40.3125 510.484 40.3125C509.203 40.3125 508.062 40.099 507.062 39.6719C506.073 39.2448 505.234 38.6458 504.547 37.875C503.87 37.0938 503.354 36.1823 503 35.1406C502.646 34.0885 502.469 32.9479 502.469 31.7188ZM506.969 31.3906V31.7188C506.969 32.4271 507.031 33.0885 507.156 33.7031C507.281 34.3177 507.479 34.8594 507.75 35.3281C508.031 35.7865 508.396 36.1458 508.844 36.4062C509.292 36.6667 509.839 36.7969 510.484 36.7969C511.109 36.7969 511.646 36.6667 512.094 36.4062C512.542 36.1458 512.901 35.7865 513.172 35.3281C513.443 34.8594 513.641 34.3177 513.766 33.7031C513.901 33.0885 513.969 32.4271 513.969 31.7188V31.3906C513.969 30.7031 513.901 30.0573 513.766 29.4531C513.641 28.8385 513.438 28.2969 513.156 27.8281C512.885 27.349 512.526 26.974 512.078 26.7031C511.63 26.4323 511.089 26.2969 510.453 26.2969C509.818 26.2969 509.276 26.4323 508.828 26.7031C508.391 26.974 508.031 27.349 507.75 27.8281C507.479 28.2969 507.281 28.8385 507.156 29.4531C507.031 30.0573 506.969 30.7031 506.969 31.3906ZM526 16V40H521.484V16H526ZM539.703 36.3125V16H544.234V40H540.156L539.703 36.3125ZM529.016 31.75V31.4219C529.016 30.1302 529.161 28.9583 529.453 27.9062C529.745 26.8438 530.172 25.9323 530.734 25.1719C531.297 24.4115 531.99 23.8229 532.812 23.4062C533.635 22.9896 534.573 22.7812 535.625 22.7812C536.615 22.7812 537.479 22.9896 538.219 23.4062C538.969 23.8229 539.604 24.4167 540.125 25.1875C540.656 25.9479 541.083 26.849 541.406 27.8906C541.729 28.9219 541.964 30.0521 542.109 31.2812V32C541.964 33.1771 541.729 34.2708 541.406 35.2812C541.083 36.2917 540.656 37.1771 540.125 37.9375C539.604 38.6875 538.969 39.2708 538.219 39.6875C537.469 40.1042 536.594 40.3125 535.594 40.3125C534.542 40.3125 533.604 40.099 532.781 39.6719C531.969 39.2448 531.281 38.6458 530.719 37.875C530.167 37.1042 529.745 36.1979 529.453 35.1562C529.161 34.1146 529.016 32.9792 529.016 31.75ZM533.516 31.4219V31.75C533.516 32.4479 533.568 33.099 533.672 33.7031C533.786 34.3073 533.969 34.8438 534.219 35.3125C534.479 35.7708 534.812 36.1302 535.219 36.3906C535.635 36.6406 536.141 36.7656 536.734 36.7656C537.505 36.7656 538.141 36.5938 538.641 36.25C539.141 35.8958 539.521 35.4115 539.781 34.7969C540.052 34.1823 540.208 33.474 540.25 32.6719V30.625C540.219 29.9688 540.125 29.3802 539.969 28.8594C539.823 28.3281 539.604 27.875 539.312 27.5C539.031 27.125 538.677 26.8333 538.25 26.625C537.833 26.4167 537.339 26.3125 536.766 26.3125C536.182 26.3125 535.682 26.4479 535.266 26.7188C534.849 26.9792 534.51 27.3385 534.25 27.7969C534 28.2552 533.812 28.7969 533.688 29.4219C533.573 30.0365 533.516 30.7031 533.516 31.4219Z" fill="#2CD18A"/>
<path d="M485.172 120.748H489.141L494.984 137.452L500.828 120.748H504.797L496.578 143.498H493.391L485.172 120.748ZM483.031 120.748H486.984L487.703 137.03V143.498H483.031V120.748ZM502.984 120.748H506.953V143.498H502.266V137.03L502.984 120.748ZM518.562 143.811C517.25 143.811 516.073 143.603 515.031 143.186C513.99 142.759 513.104 142.17 512.375 141.42C511.656 140.67 511.104 139.8 510.719 138.811C510.333 137.811 510.141 136.748 510.141 135.623V134.998C510.141 133.717 510.323 132.545 510.688 131.483C511.052 130.42 511.573 129.498 512.25 128.717C512.938 127.936 513.771 127.337 514.75 126.92C515.729 126.493 516.833 126.28 518.062 126.28C519.26 126.28 520.323 126.478 521.25 126.873C522.177 127.269 522.953 127.832 523.578 128.561C524.214 129.29 524.693 130.165 525.016 131.186C525.339 132.196 525.5 133.321 525.5 134.561V136.436H512.062V133.436H521.078V133.092C521.078 132.467 520.964 131.91 520.734 131.42C520.516 130.92 520.182 130.524 519.734 130.233C519.286 129.941 518.714 129.795 518.016 129.795C517.422 129.795 516.911 129.925 516.484 130.186C516.057 130.446 515.708 130.811 515.438 131.28C515.177 131.748 514.979 132.3 514.844 132.936C514.719 133.561 514.656 134.248 514.656 134.998V135.623C514.656 136.3 514.75 136.925 514.938 137.498C515.135 138.071 515.411 138.566 515.766 138.983C516.13 139.399 516.568 139.722 517.078 139.952C517.599 140.181 518.188 140.295 518.844 140.295C519.656 140.295 520.411 140.139 521.109 139.827C521.818 139.504 522.427 139.019 522.938 138.373L525.125 140.748C524.771 141.259 524.286 141.748 523.672 142.217C523.068 142.686 522.339 143.071 521.484 143.373C520.63 143.665 519.656 143.811 518.562 143.811ZM538.047 139.811V119.498H542.578V143.498H538.5L538.047 139.811ZM527.359 135.248V134.92C527.359 133.629 527.505 132.457 527.797 131.405C528.089 130.342 528.516 129.431 529.078 128.67C529.641 127.91 530.333 127.321 531.156 126.905C531.979 126.488 532.917 126.28 533.969 126.28C534.958 126.28 535.823 126.488 536.562 126.905C537.312 127.321 537.948 127.915 538.469 128.686C539 129.446 539.427 130.347 539.75 131.389C540.073 132.42 540.307 133.55 540.453 134.78V135.498C540.307 136.675 540.073 137.769 539.75 138.78C539.427 139.79 539 140.675 538.469 141.436C537.948 142.186 537.312 142.769 536.562 143.186C535.812 143.603 534.938 143.811 533.938 143.811C532.885 143.811 531.948 143.597 531.125 143.17C530.312 142.743 529.625 142.144 529.062 141.373C528.51 140.603 528.089 139.696 527.797 138.655C527.505 137.613 527.359 136.478 527.359 135.248ZM531.859 134.92V135.248C531.859 135.946 531.911 136.597 532.016 137.202C532.13 137.806 532.312 138.342 532.562 138.811C532.823 139.269 533.156 139.629 533.562 139.889C533.979 140.139 534.484 140.264 535.078 140.264C535.849 140.264 536.484 140.092 536.984 139.748C537.484 139.394 537.865 138.91 538.125 138.295C538.396 137.681 538.552 136.972 538.594 136.17V134.123C538.562 133.467 538.469 132.879 538.312 132.358C538.167 131.827 537.948 131.373 537.656 130.998C537.375 130.623 537.021 130.332 536.594 130.123C536.177 129.915 535.682 129.811 535.109 129.811C534.526 129.811 534.026 129.946 533.609 130.217C533.193 130.478 532.854 130.837 532.594 131.295C532.344 131.754 532.156 132.295 532.031 132.92C531.917 133.535 531.859 134.202 531.859 134.92ZM550.844 126.592V143.498H546.328V126.592H550.844ZM546.047 122.186C546.047 121.53 546.276 120.988 546.734 120.561C547.193 120.134 547.807 119.92 548.578 119.92C549.339 119.92 549.948 120.134 550.406 120.561C550.875 120.988 551.109 121.53 551.109 122.186C551.109 122.842 550.875 123.384 550.406 123.811C549.948 124.238 549.339 124.452 548.578 124.452C547.807 124.452 547.193 124.238 546.734 123.811C546.276 123.384 546.047 122.842 546.047 122.186ZM564.562 139.452V126.592H569.062V143.498H564.828L564.562 139.452ZM565.062 135.983L566.391 135.952C566.391 137.077 566.26 138.123 566 139.092C565.74 140.05 565.349 140.884 564.828 141.592C564.307 142.29 563.651 142.837 562.859 143.233C562.068 143.618 561.135 143.811 560.062 143.811C559.24 143.811 558.479 143.696 557.781 143.467C557.094 143.228 556.5 142.858 556 142.358C555.51 141.847 555.125 141.196 554.844 140.405C554.573 139.603 554.438 138.639 554.438 137.514V126.592H558.938V137.545C558.938 138.045 558.995 138.467 559.109 138.811C559.234 139.155 559.406 139.436 559.625 139.655C559.844 139.873 560.099 140.03 560.391 140.123C560.693 140.217 561.026 140.264 561.391 140.264C562.318 140.264 563.047 140.077 563.578 139.702C564.12 139.327 564.5 138.816 564.719 138.17C564.948 137.514 565.062 136.785 565.062 135.983ZM577 130.092V143.498H572.484V126.592H576.719L577 130.092ZM576.375 134.452H575.125C575.125 133.274 575.266 132.191 575.547 131.202C575.839 130.202 576.26 129.337 576.812 128.608C577.375 127.868 578.068 127.295 578.891 126.889C579.714 126.483 580.667 126.28 581.75 126.28C582.5 126.28 583.188 126.394 583.812 126.623C584.438 126.842 584.974 127.191 585.422 127.67C585.88 128.139 586.234 128.754 586.484 129.514C586.734 130.264 586.859 131.165 586.859 132.217V143.498H582.359V132.717C582.359 131.946 582.255 131.353 582.047 130.936C581.839 130.519 581.542 130.228 581.156 130.061C580.781 129.894 580.328 129.811 579.797 129.811C579.214 129.811 578.703 129.931 578.266 130.17C577.839 130.41 577.484 130.743 577.203 131.17C576.922 131.587 576.714 132.077 576.578 132.639C576.443 133.202 576.375 133.806 576.375 134.452ZM586.438 133.936L584.828 134.139C584.828 133.035 584.964 132.009 585.234 131.061C585.516 130.113 585.927 129.28 586.469 128.561C587.021 127.842 587.703 127.285 588.516 126.889C589.328 126.483 590.266 126.28 591.328 126.28C592.141 126.28 592.88 126.399 593.547 126.639C594.214 126.868 594.781 127.238 595.25 127.748C595.729 128.248 596.094 128.905 596.344 129.717C596.604 130.53 596.734 131.524 596.734 132.702V143.498H592.219V132.702C592.219 131.92 592.115 131.327 591.906 130.92C591.708 130.504 591.417 130.217 591.031 130.061C590.656 129.894 590.208 129.811 589.688 129.811C589.146 129.811 588.672 129.92 588.266 130.139C587.859 130.347 587.521 130.639 587.25 131.014C586.979 131.389 586.776 131.827 586.641 132.327C586.505 132.816 586.438 133.353 586.438 133.936Z" fill="#2CD18A"/>
<path d="M483.031 223.157H491.516C493.255 223.157 494.75 223.418 496 223.939C497.26 224.459 498.229 225.23 498.906 226.251C499.583 227.272 499.922 228.527 499.922 230.017C499.922 231.235 499.714 232.282 499.297 233.157C498.891 234.022 498.312 234.746 497.562 235.329C496.823 235.902 495.953 236.36 494.953 236.704L493.469 237.485H486.094L486.062 233.829H491.547C492.37 233.829 493.052 233.683 493.594 233.392C494.135 233.1 494.542 232.694 494.812 232.173C495.094 231.652 495.234 231.048 495.234 230.36C495.234 229.631 495.099 229.001 494.828 228.47C494.557 227.939 494.146 227.532 493.594 227.251C493.042 226.97 492.349 226.829 491.516 226.829H487.719V245.907H483.031V223.157ZM495.75 245.907L490.562 235.767L495.516 235.735L500.766 245.689V245.907H495.75ZM511.031 246.22C509.719 246.22 508.542 246.012 507.5 245.595C506.458 245.168 505.573 244.579 504.844 243.829C504.125 243.079 503.573 242.209 503.188 241.22C502.802 240.22 502.609 239.157 502.609 238.032V237.407C502.609 236.126 502.792 234.954 503.156 233.892C503.521 232.829 504.042 231.907 504.719 231.126C505.406 230.345 506.24 229.746 507.219 229.329C508.198 228.902 509.302 228.689 510.531 228.689C511.729 228.689 512.792 228.887 513.719 229.282C514.646 229.678 515.422 230.241 516.047 230.97C516.682 231.699 517.161 232.574 517.484 233.595C517.807 234.605 517.969 235.73 517.969 236.97V238.845H504.531V235.845H513.547V235.501C513.547 234.876 513.432 234.319 513.203 233.829C512.984 233.329 512.651 232.933 512.203 232.642C511.755 232.35 511.182 232.204 510.484 232.204C509.891 232.204 509.38 232.334 508.953 232.595C508.526 232.855 508.177 233.22 507.906 233.689C507.646 234.157 507.448 234.709 507.312 235.345C507.188 235.97 507.125 236.657 507.125 237.407V238.032C507.125 238.709 507.219 239.334 507.406 239.907C507.604 240.48 507.88 240.975 508.234 241.392C508.599 241.808 509.036 242.131 509.547 242.36C510.068 242.59 510.656 242.704 511.312 242.704C512.125 242.704 512.88 242.548 513.578 242.235C514.286 241.913 514.896 241.428 515.406 240.782L517.594 243.157C517.24 243.668 516.755 244.157 516.141 244.626C515.536 245.095 514.807 245.48 513.953 245.782C513.099 246.074 512.125 246.22 511.031 246.22ZM531.234 229.001H535.312V245.345C535.312 246.887 534.969 248.194 534.281 249.267C533.604 250.35 532.656 251.168 531.438 251.72C530.219 252.282 528.802 252.564 527.188 252.564C526.479 252.564 525.729 252.47 524.938 252.282C524.156 252.095 523.406 251.803 522.688 251.407C521.979 251.012 521.385 250.512 520.906 249.907L522.891 247.251C523.411 247.855 524.016 248.324 524.703 248.657C525.391 249.001 526.151 249.173 526.984 249.173C527.797 249.173 528.484 249.022 529.047 248.72C529.609 248.428 530.042 247.996 530.344 247.423C530.646 246.86 530.797 246.178 530.797 245.376V232.907L531.234 229.001ZM519.859 237.657V237.329C519.859 236.038 520.016 234.866 520.328 233.814C520.651 232.751 521.104 231.84 521.688 231.079C522.281 230.319 523 229.73 523.844 229.314C524.688 228.897 525.641 228.689 526.703 228.689C527.828 228.689 528.771 228.897 529.531 229.314C530.292 229.73 530.917 230.324 531.406 231.095C531.896 231.855 532.276 232.756 532.547 233.798C532.828 234.829 533.047 235.959 533.203 237.189V237.907C533.047 239.084 532.812 240.178 532.5 241.189C532.188 242.199 531.776 243.084 531.266 243.845C530.755 244.595 530.12 245.178 529.359 245.595C528.609 246.012 527.714 246.22 526.672 246.22C525.63 246.22 524.688 246.006 523.844 245.579C523.01 245.152 522.297 244.553 521.703 243.782C521.109 243.012 520.651 242.105 520.328 241.064C520.016 240.022 519.859 238.887 519.859 237.657ZM524.359 237.329V237.657C524.359 238.355 524.427 239.006 524.562 239.61C524.698 240.215 524.906 240.751 525.188 241.22C525.479 241.678 525.839 242.038 526.266 242.298C526.703 242.548 527.219 242.673 527.812 242.673C528.635 242.673 529.307 242.501 529.828 242.157C530.349 241.803 530.74 241.319 531 240.704C531.26 240.09 531.411 239.381 531.453 238.579V236.532C531.432 235.876 531.344 235.288 531.188 234.767C531.031 234.235 530.812 233.782 530.531 233.407C530.25 233.032 529.885 232.741 529.438 232.532C528.99 232.324 528.458 232.22 527.844 232.22C527.25 232.22 526.734 232.355 526.297 232.626C525.87 232.887 525.51 233.246 525.219 233.704C524.938 234.163 524.724 234.704 524.578 235.329C524.432 235.944 524.359 236.61 524.359 237.329ZM548.812 241.86V229.001H553.312V245.907H549.078L548.812 241.86ZM549.312 238.392L550.641 238.36C550.641 239.485 550.51 240.532 550.25 241.501C549.99 242.459 549.599 243.293 549.078 244.001C548.557 244.699 547.901 245.246 547.109 245.642C546.318 246.027 545.385 246.22 544.312 246.22C543.49 246.22 542.729 246.105 542.031 245.876C541.344 245.637 540.75 245.267 540.25 244.767C539.76 244.256 539.375 243.605 539.094 242.814C538.823 242.012 538.688 241.048 538.688 239.923V229.001H543.188V239.954C543.188 240.454 543.245 240.876 543.359 241.22C543.484 241.564 543.656 241.845 543.875 242.064C544.094 242.282 544.349 242.439 544.641 242.532C544.943 242.626 545.276 242.673 545.641 242.673C546.568 242.673 547.297 242.485 547.828 242.11C548.37 241.735 548.75 241.225 548.969 240.579C549.198 239.923 549.312 239.194 549.312 238.392ZM561.5 221.907V245.907H556.984V221.907H561.5ZM574.344 242.095V234.564C574.344 234.022 574.255 233.558 574.078 233.173C573.901 232.777 573.625 232.47 573.25 232.251C572.885 232.032 572.411 231.923 571.828 231.923C571.328 231.923 570.896 232.012 570.531 232.189C570.167 232.355 569.885 232.6 569.688 232.923C569.49 233.235 569.391 233.605 569.391 234.032H564.891C564.891 233.314 565.057 232.631 565.391 231.985C565.724 231.34 566.208 230.772 566.844 230.282C567.479 229.782 568.234 229.392 569.109 229.11C569.995 228.829 570.984 228.689 572.078 228.689C573.391 228.689 574.557 228.907 575.578 229.345C576.599 229.782 577.401 230.439 577.984 231.314C578.578 232.189 578.875 233.282 578.875 234.595V241.829C578.875 242.756 578.932 243.517 579.047 244.11C579.161 244.694 579.328 245.204 579.547 245.642V245.907H575C574.781 245.449 574.615 244.876 574.5 244.189C574.396 243.491 574.344 242.793 574.344 242.095ZM574.938 235.61L574.969 238.157H572.453C571.859 238.157 571.344 238.225 570.906 238.36C570.469 238.496 570.109 238.689 569.828 238.939C569.547 239.178 569.339 239.459 569.203 239.782C569.078 240.105 569.016 240.459 569.016 240.845C569.016 241.23 569.104 241.579 569.281 241.892C569.458 242.194 569.714 242.433 570.047 242.61C570.38 242.777 570.771 242.86 571.219 242.86C571.896 242.86 572.484 242.725 572.984 242.454C573.484 242.183 573.87 241.85 574.141 241.454C574.422 241.058 574.568 240.683 574.578 240.329L575.766 242.235C575.599 242.663 575.37 243.105 575.078 243.564C574.797 244.022 574.438 244.454 574 244.86C573.562 245.256 573.036 245.584 572.422 245.845C571.807 246.095 571.078 246.22 570.234 246.22C569.161 246.22 568.188 246.006 567.312 245.579C566.448 245.142 565.76 244.543 565.25 243.782C564.75 243.012 564.5 242.137 564.5 241.157C564.5 240.272 564.667 239.485 565 238.798C565.333 238.11 565.823 237.532 566.469 237.064C567.125 236.584 567.943 236.225 568.922 235.985C569.901 235.735 571.036 235.61 572.328 235.61H574.938ZM586.844 232.689V245.907H582.344V229.001H586.578L586.844 232.689ZM591.938 228.892L591.859 233.064C591.641 233.032 591.375 233.006 591.062 232.985C590.76 232.954 590.484 232.939 590.234 232.939C589.599 232.939 589.047 233.022 588.578 233.189C588.12 233.345 587.734 233.579 587.422 233.892C587.12 234.204 586.891 234.584 586.734 235.032C586.589 235.48 586.505 235.991 586.484 236.564L585.578 236.282C585.578 235.189 585.688 234.183 585.906 233.267C586.125 232.34 586.443 231.532 586.859 230.845C587.286 230.157 587.807 229.626 588.422 229.251C589.036 228.876 589.74 228.689 590.531 228.689C590.781 228.689 591.036 228.709 591.297 228.751C591.557 228.782 591.771 228.829 591.938 228.892Z" fill="#2CD18A"/>
<path d="M497.656 345.75V349.406H486.203V345.75H497.656ZM487.719 326.656V349.406H483.031V326.656H487.719ZM504.812 332.5V349.406H500.297V332.5H504.812ZM500.016 328.093C500.016 327.437 500.245 326.895 500.703 326.468C501.161 326.041 501.776 325.828 502.547 325.828C503.307 325.828 503.917 326.041 504.375 326.468C504.844 326.895 505.078 327.437 505.078 328.093C505.078 328.75 504.844 329.291 504.375 329.718C503.917 330.145 503.307 330.359 502.547 330.359C501.776 330.359 501.161 330.145 500.703 329.718C500.245 329.291 500.016 328.75 500.016 328.093ZM519.234 332.5H523.312V348.843C523.312 350.385 522.969 351.692 522.281 352.765C521.604 353.848 520.656 354.666 519.438 355.218C518.219 355.781 516.802 356.062 515.188 356.062C514.479 356.062 513.729 355.968 512.938 355.781C512.156 355.593 511.406 355.302 510.688 354.906C509.979 354.51 509.385 354.01 508.906 353.406L510.891 350.75C511.411 351.354 512.016 351.822 512.703 352.156C513.391 352.5 514.151 352.671 514.984 352.671C515.797 352.671 516.484 352.52 517.047 352.218C517.609 351.927 518.042 351.494 518.344 350.921C518.646 350.359 518.797 349.677 518.797 348.875V336.406L519.234 332.5ZM507.859 341.156V340.828C507.859 339.536 508.016 338.364 508.328 337.312C508.651 336.25 509.104 335.338 509.688 334.578C510.281 333.817 511 333.229 511.844 332.812C512.688 332.395 513.641 332.187 514.703 332.187C515.828 332.187 516.771 332.395 517.531 332.812C518.292 333.229 518.917 333.822 519.406 334.593C519.896 335.354 520.276 336.255 520.547 337.296C520.828 338.328 521.047 339.458 521.203 340.687V341.406C521.047 342.583 520.812 343.677 520.5 344.687C520.188 345.697 519.776 346.583 519.266 347.343C518.755 348.093 518.12 348.677 517.359 349.093C516.609 349.51 515.714 349.718 514.672 349.718C513.63 349.718 512.688 349.505 511.844 349.078C511.01 348.651 510.297 348.052 509.703 347.281C509.109 346.51 508.651 345.604 508.328 344.562C508.016 343.52 507.859 342.385 507.859 341.156ZM512.359 340.828V341.156C512.359 341.854 512.427 342.505 512.562 343.109C512.698 343.713 512.906 344.25 513.188 344.718C513.479 345.177 513.839 345.536 514.266 345.796C514.703 346.046 515.219 346.171 515.812 346.171C516.635 346.171 517.307 346 517.828 345.656C518.349 345.302 518.74 344.817 519 344.203C519.26 343.588 519.411 342.88 519.453 342.078V340.031C519.432 339.375 519.344 338.786 519.188 338.265C519.031 337.734 518.812 337.281 518.531 336.906C518.25 336.531 517.885 336.239 517.438 336.031C516.99 335.822 516.458 335.718 515.844 335.718C515.25 335.718 514.734 335.854 514.297 336.125C513.87 336.385 513.51 336.744 513.219 337.203C512.938 337.661 512.724 338.203 512.578 338.828C512.432 339.442 512.359 340.109 512.359 340.828ZM531.203 325.406V349.406H526.703V325.406H531.203ZM530.562 340.359H529.328C529.339 339.182 529.495 338.098 529.797 337.109C530.099 336.109 530.531 335.244 531.094 334.515C531.656 333.776 532.328 333.203 533.109 332.796C533.901 332.39 534.776 332.187 535.734 332.187C536.568 332.187 537.323 332.307 538 332.546C538.688 332.776 539.276 333.151 539.766 333.671C540.266 334.182 540.651 334.854 540.922 335.687C541.193 336.52 541.328 337.531 541.328 338.718V349.406H536.797V338.687C536.797 337.937 536.688 337.348 536.469 336.921C536.26 336.484 535.953 336.177 535.547 336C535.151 335.812 534.661 335.718 534.078 335.718C533.432 335.718 532.88 335.838 532.422 336.078C531.974 336.317 531.615 336.651 531.344 337.078C531.073 337.494 530.875 337.984 530.75 338.546C530.625 339.109 530.562 339.713 530.562 340.359ZM553.031 332.5V335.687H543.188V332.5H553.031ZM545.625 328.328H550.125V344.312C550.125 344.802 550.188 345.177 550.312 345.437C550.448 345.697 550.646 345.88 550.906 345.984C551.167 346.078 551.495 346.125 551.891 346.125C552.172 346.125 552.422 346.114 552.641 346.093C552.87 346.062 553.062 346.031 553.219 346L553.234 349.312C552.849 349.437 552.432 349.536 551.984 349.609C551.536 349.682 551.042 349.718 550.5 349.718C549.51 349.718 548.646 349.557 547.906 349.234C547.177 348.901 546.615 348.369 546.219 347.64C545.823 346.911 545.625 345.953 545.625 344.765V328.328Z" fill="#2CD18A"/>
</svg>
