<svg width="739" height="456" viewBox="0 0 739 456" fill="none" xmlns="http://www.w3.org/2000/svg">
<path d="M494.409 0H689C716.614 0 739 22.3858 739 50V299.842H494.409V0Z" fill="#2CD18A"/>
<path d="M0.259766 50C0.259766 22.3857 22.6455 0 50.2598 0H494.409V299.842H0.259766V50Z" fill="white"/>
<path d="M37.6422 45.2446L35.4391 38.0024C35.236 37.4009 34.9391 36.2642 34.5485 34.5923H34.4547C34.1266 36.1157 33.8375 37.2603 33.5875 38.0259L31.2789 45.2446H28.8883L25.361 32.3774H27.5406C28.3531 35.5415 28.9703 37.9478 29.3922 39.5962C29.8219 41.2446 30.0758 42.4087 30.1539 43.0884H30.2477L30.4117 42.3618C30.6539 41.2446 30.8883 40.3345 31.1149 39.6313L33.4 32.3774H35.6969L37.9117 39.6313C37.9899 39.9048 38.0719 40.1978 38.1578 40.5103C38.2516 40.8149 38.3375 41.1196 38.4156 41.4243C38.4938 41.7212 38.5641 42.0142 38.6266 42.3032C38.6891 42.5845 38.736 42.8384 38.7672 43.0649H38.8727C38.943 42.4712 39.2281 41.1978 39.7281 39.2446L41.5328 32.3774H43.6891L40.1149 45.2446H37.6422ZM54.7633 45.2446V37.0181C54.7633 35.9712 54.5289 35.1938 54.0602 34.686C53.5992 34.1704 52.8727 33.9126 51.8805 33.9126C50.5758 33.9126 49.6188 34.2759 49.0094 35.0024C48.4078 35.729 48.1071 36.9282 48.1071 38.6001V45.2446H45.9977V27.0103H48.1071V32.354C48.1071 33.0571 48.068 33.6587 47.9899 34.1587H48.1305C48.5133 33.5337 49.0563 33.0454 49.7594 32.6938C50.4625 32.3423 51.2555 32.1665 52.1383 32.1665C53.7008 32.1665 54.8766 32.5415 55.6656 33.2915C56.4547 34.0337 56.8492 35.2251 56.8492 36.8657V45.2446H54.7633ZM62.943 45.2446H60.8336V32.3774H62.943V45.2446ZM60.6696 28.897C60.6696 28.4282 60.7867 28.0884 61.0211 27.8774C61.2633 27.6665 61.5602 27.561 61.9117 27.561C62.2399 27.561 62.525 27.6665 62.7672 27.8774C63.0172 28.0884 63.1422 28.4282 63.1422 28.897C63.1422 29.3579 63.0172 29.6978 62.7672 29.9165C62.525 30.1353 62.2399 30.2446 61.9117 30.2446C61.5602 30.2446 61.2633 30.1353 61.0211 29.9165C60.7867 29.6978 60.6696 29.3579 60.6696 28.897ZM71.3219 43.7563C71.5953 43.7563 71.9156 43.729 72.2828 43.6743C72.65 43.6196 72.9274 43.5571 73.1149 43.4868V45.104C72.9196 45.1899 72.6149 45.272 72.2008 45.3501C71.7946 45.436 71.3805 45.479 70.9586 45.479C68.443 45.479 67.1852 44.1548 67.1852 41.5063V34.0181H65.3688V33.0103L67.2086 32.1665L68.0524 29.4243H69.3063V32.3774H73.0211V34.0181H69.3063V41.4478C69.3063 42.1899 69.4821 42.7603 69.8336 43.1587C70.193 43.5571 70.6891 43.7563 71.3219 43.7563ZM81.1656 45.479C79.236 45.479 77.7203 44.897 76.6188 43.7329C75.525 42.561 74.9781 40.9517 74.9781 38.9048C74.9781 36.8423 75.4899 35.2017 76.5133 33.9829C77.5367 32.7563 78.9196 32.1431 80.6617 32.1431C82.2789 32.1431 83.568 32.6665 84.5289 33.7134C85.4899 34.7524 85.9703 36.1626 85.9703 37.9438V39.2212H77.1578C77.1969 40.6821 77.568 41.7915 78.2711 42.5493C78.9742 43.3071 79.9703 43.686 81.2594 43.686C81.9469 43.686 82.5992 43.6274 83.2164 43.5103C83.8336 43.3853 84.5563 43.147 85.3844 42.7954V44.647C84.6735 44.9517 84.0055 45.1665 83.3805 45.2915C82.7555 45.4165 82.0172 45.479 81.1656 45.479ZM80.6383 33.8657C79.6305 33.8657 78.8336 34.1899 78.2477 34.8384C77.6617 35.4868 77.3141 36.3892 77.2047 37.5454H83.7555C83.7399 36.3423 83.4625 35.4282 82.9235 34.8032C82.3844 34.1782 81.6227 33.8657 80.6383 33.8657Z" fill="black"/>
<path d="M35.3805 260.97H33.943V255.642H28.0836V260.97H26.6461V249.548H28.0836V254.376H33.943V249.548H35.3805V260.97ZM41.9586 261.126C40.6722 261.126 39.6617 260.738 38.9274 259.962C38.1982 259.181 37.8336 258.108 37.8336 256.743C37.8336 255.368 38.1748 254.274 38.8571 253.462C39.5393 252.644 40.4612 252.235 41.6227 252.235C42.7008 252.235 43.5602 252.584 44.2008 253.282C44.8414 253.975 45.1617 254.915 45.1617 256.103V256.954H39.2867C39.3128 257.928 39.5602 258.668 40.0289 259.173C40.4977 259.678 41.1617 259.931 42.0211 259.931C42.4795 259.931 42.9143 259.892 43.3258 259.813C43.7373 259.73 44.219 259.571 44.7711 259.337V260.571C44.2972 260.774 43.8518 260.918 43.4352 261.001C43.0185 261.084 42.5263 261.126 41.9586 261.126ZM41.6071 253.384C40.9352 253.384 40.4039 253.6 40.0133 254.032C39.6227 254.465 39.3909 255.066 39.318 255.837H43.6852C43.6748 255.035 43.4899 254.425 43.1305 254.009C42.7711 253.592 42.2633 253.384 41.6071 253.384ZM49.2164 256.587L46.2555 252.392H47.8571L50.068 255.626L52.2555 252.392H53.8414L50.8805 256.587L54.0055 260.97H52.4039L50.068 257.548L47.7008 260.97H46.1149L49.2164 256.587Z" fill="#00203F"/>
<path d="M32.7711 271.427L32.3102 273.857H34.4352V274.912H32.0992L31.5602 277.732H30.4352L30.9899 274.912H28.7633L28.2164 277.732H27.1149L27.6305 274.912H25.6383V273.857H27.8336L28.318 271.427H26.2164V270.38H28.5055L29.0367 267.615H30.1617L29.6383 270.38H31.8805L32.4196 267.615H33.5211L32.9821 270.38H34.9899V271.427H32.7711ZM28.9586 273.857H31.193L31.6617 271.427H29.4352L28.9586 273.857ZM38.5367 277.732H37.0992V266.31H43.4821V267.576H38.5367V271.623H43.1774V272.88H38.5367V277.732ZM46.8492 277.732H45.4117V266.31H51.7946V267.576H46.8492V271.623H51.4899V272.88H46.8492V277.732ZM55.1617 277.732H53.7242V266.31H60.1071V267.576H55.1617V271.623H59.8024V272.88H55.1617V277.732ZM63.4742 277.732H62.0367V266.31H68.4196V267.576H63.4742V271.623H68.1149V272.88H63.4742V277.732ZM71.7867 277.732H70.3492V266.31H76.7321V267.576H71.7867V271.623H76.4274V272.88H71.7867V277.732ZM80.0992 277.732H78.6617V266.31H85.0446V267.576H80.0992V271.623H84.7399V272.88H80.0992V277.732Z" fill="#00203F"/>
<path d="M218.042 255.032H219.753C220.68 255.032 221.357 254.85 221.784 254.485C222.211 254.121 222.424 253.579 222.424 252.86C222.424 252.142 222.208 251.618 221.776 251.29C221.344 250.957 220.643 250.79 219.674 250.79H218.042V255.032ZM218.042 256.251V260.97H216.604V249.548H219.753C221.169 249.548 222.216 249.819 222.893 250.36C223.575 250.897 223.917 251.707 223.917 252.79C223.917 254.306 223.154 255.326 221.628 255.853L224.76 260.97H223.081L220.315 256.251H218.042ZM231.518 254.938H235.464V260.54C234.859 260.733 234.245 260.879 233.62 260.978C232.995 261.076 232.271 261.126 231.448 261.126C229.708 261.126 228.362 260.61 227.409 259.579C226.456 258.548 225.979 257.108 225.979 255.259C225.979 254.066 226.216 253.024 226.69 252.134C227.164 251.243 227.846 250.563 228.737 250.095C229.633 249.621 230.687 249.384 231.901 249.384C233.12 249.384 234.255 249.608 235.307 250.056L234.76 251.306C233.755 250.868 232.773 250.649 231.815 250.649C230.456 250.649 229.393 251.061 228.628 251.884C227.862 252.707 227.479 253.832 227.479 255.259C227.479 256.769 227.846 257.918 228.581 258.704C229.315 259.491 230.383 259.884 231.784 259.884C232.549 259.884 233.297 259.793 234.026 259.61V256.22H231.518V254.938ZM238.214 249.548H241.471C243.003 249.548 244.107 249.777 244.784 250.235C245.466 250.688 245.807 251.402 245.807 252.376C245.807 253.053 245.622 253.613 245.253 254.056C244.883 254.493 244.344 254.777 243.635 254.907V254.985C244.516 255.136 245.161 255.441 245.573 255.899C245.99 256.358 246.198 256.965 246.198 257.72C246.198 258.741 245.849 259.537 245.151 260.11C244.453 260.683 243.479 260.97 242.229 260.97H238.214V249.548ZM239.651 254.407H241.76C242.656 254.407 243.307 254.264 243.714 253.978C244.12 253.691 244.323 253.212 244.323 252.54C244.323 251.915 244.099 251.465 243.651 251.188C243.208 250.912 242.505 250.774 241.542 250.774H239.651V254.407ZM239.651 255.61V259.751H241.956C242.872 259.751 243.552 259.574 243.995 259.22C244.437 258.866 244.659 258.329 244.659 257.61C244.659 256.928 244.424 256.425 243.956 256.103C243.487 255.774 242.784 255.61 241.846 255.61H239.651Z" fill="#00203F"/>
<path d="M222.924 277.732H215.799V276.513L218.534 273.537C218.924 273.115 219.273 272.729 219.581 272.38C219.888 272.031 220.148 271.69 220.362 271.357C220.581 271.024 220.747 270.69 220.862 270.357C220.977 270.018 221.034 269.651 221.034 269.255C221.034 268.948 220.99 268.677 220.901 268.443C220.812 268.208 220.685 268.011 220.518 267.849C220.357 267.682 220.164 267.557 219.94 267.474C219.716 267.391 219.466 267.349 219.19 267.349C218.695 267.349 218.247 267.451 217.846 267.654C217.45 267.852 217.073 268.107 216.714 268.419L215.917 267.49C216.125 267.302 216.349 267.128 216.589 266.966C216.828 266.8 217.086 266.656 217.362 266.537C217.638 266.417 217.93 266.323 218.237 266.255C218.544 266.182 218.867 266.146 219.206 266.146C219.706 266.146 220.156 266.216 220.557 266.357C220.964 266.498 221.307 266.701 221.589 266.966C221.87 267.227 222.086 267.547 222.237 267.927C222.393 268.302 222.471 268.727 222.471 269.201C222.471 269.643 222.401 270.065 222.26 270.466C222.125 270.867 221.935 271.263 221.69 271.654C221.45 272.039 221.161 272.427 220.823 272.818C220.49 273.208 220.128 273.615 219.737 274.037L217.542 276.373V276.435H222.924V277.732ZM228.12 270.724C228.635 270.724 229.115 270.797 229.557 270.943C230.005 271.083 230.393 271.294 230.721 271.576C231.055 271.857 231.315 272.206 231.503 272.623C231.69 273.039 231.784 273.521 231.784 274.068C231.784 274.662 231.695 275.195 231.518 275.669C231.341 276.143 231.078 276.544 230.729 276.873C230.38 277.201 229.948 277.453 229.432 277.63C228.922 277.802 228.333 277.888 227.667 277.888C227.401 277.888 227.138 277.875 226.878 277.849C226.622 277.823 226.375 277.784 226.135 277.732C225.901 277.685 225.677 277.623 225.464 277.544C225.25 277.466 225.057 277.375 224.885 277.271V275.927C225.057 276.047 225.258 276.154 225.487 276.248C225.721 276.341 225.966 276.419 226.221 276.482C226.477 276.544 226.732 276.594 226.987 276.63C227.247 276.662 227.487 276.677 227.706 276.677C228.117 276.677 228.484 276.63 228.807 276.537C229.13 276.438 229.404 276.287 229.628 276.083C229.852 275.88 230.023 275.625 230.143 275.318C230.263 275.011 230.323 274.646 230.323 274.224C230.323 273.479 230.094 272.912 229.635 272.521C229.177 272.125 228.51 271.927 227.635 271.927C227.495 271.927 227.341 271.935 227.174 271.951C227.013 271.961 226.849 271.977 226.682 271.998C226.521 272.018 226.365 272.042 226.214 272.068C226.068 272.089 225.94 272.11 225.831 272.13L225.128 271.685L225.557 266.31H230.948V267.607H226.792L226.487 270.88C226.654 270.849 226.872 270.815 227.143 270.779C227.419 270.742 227.745 270.724 228.12 270.724ZM236.932 270.724C237.448 270.724 237.927 270.797 238.37 270.943C238.818 271.083 239.206 271.294 239.534 271.576C239.867 271.857 240.128 272.206 240.315 272.623C240.503 273.039 240.596 273.521 240.596 274.068C240.596 274.662 240.508 275.195 240.331 275.669C240.154 276.143 239.891 276.544 239.542 276.873C239.193 277.201 238.76 277.453 238.245 277.63C237.734 277.802 237.146 277.888 236.479 277.888C236.214 277.888 235.95 277.875 235.69 277.849C235.435 277.823 235.187 277.784 234.948 277.732C234.714 277.685 234.49 277.623 234.276 277.544C234.062 277.466 233.87 277.375 233.698 277.271V275.927C233.87 276.047 234.07 276.154 234.299 276.248C234.534 276.341 234.779 276.419 235.034 276.482C235.289 276.544 235.544 276.594 235.799 276.63C236.06 276.662 236.299 276.677 236.518 276.677C236.93 276.677 237.297 276.63 237.62 276.537C237.943 276.438 238.216 276.287 238.44 276.083C238.664 275.88 238.836 275.625 238.956 275.318C239.075 275.011 239.135 274.646 239.135 274.224C239.135 273.479 238.906 272.912 238.448 272.521C237.99 272.125 237.323 271.927 236.448 271.927C236.307 271.927 236.154 271.935 235.987 271.951C235.825 271.961 235.661 271.977 235.495 271.998C235.333 272.018 235.177 272.042 235.026 272.068C234.88 272.089 234.753 272.11 234.643 272.13L233.94 271.685L234.37 266.31H239.76V267.607H235.604L235.299 270.88C235.466 270.849 235.685 270.815 235.956 270.779C236.232 270.742 236.557 270.724 236.932 270.724ZM265.987 277.732H258.862V276.513L261.596 273.537C261.987 273.115 262.336 272.729 262.643 272.38C262.95 272.031 263.211 271.69 263.424 271.357C263.643 271.024 263.81 270.69 263.924 270.357C264.039 270.018 264.096 269.651 264.096 269.255C264.096 268.948 264.052 268.677 263.964 268.443C263.875 268.208 263.747 268.011 263.581 267.849C263.419 267.682 263.227 267.557 263.003 267.474C262.779 267.391 262.529 267.349 262.253 267.349C261.758 267.349 261.31 267.451 260.909 267.654C260.513 267.852 260.135 268.107 259.776 268.419L258.979 267.49C259.187 267.302 259.411 267.128 259.651 266.966C259.891 266.8 260.148 266.656 260.424 266.537C260.7 266.417 260.992 266.323 261.299 266.255C261.607 266.182 261.93 266.146 262.268 266.146C262.768 266.146 263.219 266.216 263.62 266.357C264.026 266.498 264.37 266.701 264.651 266.966C264.932 267.227 265.148 267.547 265.299 267.927C265.456 268.302 265.534 268.727 265.534 269.201C265.534 269.643 265.464 270.065 265.323 270.466C265.187 270.867 264.997 271.263 264.753 271.654C264.513 272.039 264.224 272.427 263.885 272.818C263.552 273.208 263.19 273.615 262.799 274.037L260.604 276.373V276.435H265.987V277.732ZM271.182 270.724C271.698 270.724 272.177 270.797 272.62 270.943C273.068 271.083 273.456 271.294 273.784 271.576C274.117 271.857 274.378 272.206 274.565 272.623C274.753 273.039 274.846 273.521 274.846 274.068C274.846 274.662 274.758 275.195 274.581 275.669C274.404 276.143 274.141 276.544 273.792 276.873C273.443 277.201 273.01 277.453 272.495 277.63C271.984 277.802 271.396 277.888 270.729 277.888C270.464 277.888 270.2 277.875 269.94 277.849C269.685 277.823 269.437 277.784 269.198 277.732C268.964 277.685 268.74 277.623 268.526 277.544C268.312 277.466 268.12 277.375 267.948 277.271V275.927C268.12 276.047 268.32 276.154 268.549 276.248C268.784 276.341 269.029 276.419 269.284 276.482C269.539 276.544 269.794 276.594 270.049 276.63C270.31 276.662 270.549 276.677 270.768 276.677C271.18 276.677 271.547 276.63 271.87 276.537C272.193 276.438 272.466 276.287 272.69 276.083C272.914 275.88 273.086 275.625 273.206 275.318C273.325 275.011 273.385 274.646 273.385 274.224C273.385 273.479 273.156 272.912 272.698 272.521C272.24 272.125 271.573 271.927 270.698 271.927C270.557 271.927 270.404 271.935 270.237 271.951C270.075 271.961 269.911 271.977 269.745 271.998C269.583 272.018 269.427 272.042 269.276 272.068C269.13 272.089 269.003 272.11 268.893 272.13L268.19 271.685L268.62 266.31H274.01V267.607H269.854L269.549 270.88C269.716 270.849 269.935 270.815 270.206 270.779C270.482 270.742 270.807 270.724 271.182 270.724ZM279.995 270.724C280.51 270.724 280.99 270.797 281.432 270.943C281.88 271.083 282.268 271.294 282.596 271.576C282.93 271.857 283.19 272.206 283.378 272.623C283.565 273.039 283.659 273.521 283.659 274.068C283.659 274.662 283.57 275.195 283.393 275.669C283.216 276.143 282.953 276.544 282.604 276.873C282.255 277.201 281.823 277.453 281.307 277.63C280.797 277.802 280.208 277.888 279.542 277.888C279.276 277.888 279.013 277.875 278.753 277.849C278.497 277.823 278.25 277.784 278.01 277.732C277.776 277.685 277.552 277.623 277.339 277.544C277.125 277.466 276.932 277.375 276.76 277.271V275.927C276.932 276.047 277.133 276.154 277.362 276.248C277.596 276.341 277.841 276.419 278.096 276.482C278.352 276.544 278.607 276.594 278.862 276.63C279.122 276.662 279.362 276.677 279.581 276.677C279.992 276.677 280.359 276.63 280.682 276.537C281.005 276.438 281.279 276.287 281.503 276.083C281.727 275.88 281.898 275.625 282.018 275.318C282.138 275.011 282.198 274.646 282.198 274.224C282.198 273.479 281.969 272.912 281.51 272.521C281.052 272.125 280.385 271.927 279.51 271.927C279.37 271.927 279.216 271.935 279.049 271.951C278.888 271.961 278.724 271.977 278.557 271.998C278.396 272.018 278.24 272.042 278.089 272.068C277.943 272.089 277.815 272.11 277.706 272.13L277.003 271.685L277.432 266.31H282.823V267.607H278.667L278.362 270.88C278.529 270.849 278.747 270.815 279.018 270.779C279.294 270.742 279.62 270.724 279.995 270.724ZM309.049 277.732H301.924V276.513L304.659 273.537C305.049 273.115 305.398 272.729 305.706 272.38C306.013 272.031 306.273 271.69 306.487 271.357C306.706 271.024 306.872 270.69 306.987 270.357C307.102 270.018 307.159 269.651 307.159 269.255C307.159 268.948 307.115 268.677 307.026 268.443C306.937 268.208 306.81 268.011 306.643 267.849C306.482 267.682 306.289 267.557 306.065 267.474C305.841 267.391 305.591 267.349 305.315 267.349C304.82 267.349 304.372 267.451 303.971 267.654C303.575 267.852 303.198 268.107 302.839 268.419L302.042 267.49C302.25 267.302 302.474 267.128 302.714 266.966C302.953 266.8 303.211 266.656 303.487 266.537C303.763 266.417 304.055 266.323 304.362 266.255C304.669 266.182 304.992 266.146 305.331 266.146C305.831 266.146 306.281 266.216 306.682 266.357C307.089 266.498 307.432 266.701 307.714 266.966C307.995 267.227 308.211 267.547 308.362 267.927C308.518 268.302 308.596 268.727 308.596 269.201C308.596 269.643 308.526 270.065 308.385 270.466C308.25 270.867 308.06 271.263 307.815 271.654C307.575 272.039 307.286 272.427 306.948 272.818C306.615 273.208 306.253 273.615 305.862 274.037L303.667 276.373V276.435H309.049V277.732ZM314.245 270.724C314.76 270.724 315.24 270.797 315.682 270.943C316.13 271.083 316.518 271.294 316.846 271.576C317.18 271.857 317.44 272.206 317.628 272.623C317.815 273.039 317.909 273.521 317.909 274.068C317.909 274.662 317.82 275.195 317.643 275.669C317.466 276.143 317.203 276.544 316.854 276.873C316.505 277.201 316.073 277.453 315.557 277.63C315.047 277.802 314.458 277.888 313.792 277.888C313.526 277.888 313.263 277.875 313.003 277.849C312.747 277.823 312.5 277.784 312.26 277.732C312.026 277.685 311.802 277.623 311.589 277.544C311.375 277.466 311.182 277.375 311.01 277.271V275.927C311.182 276.047 311.383 276.154 311.612 276.248C311.846 276.341 312.091 276.419 312.346 276.482C312.602 276.544 312.857 276.594 313.112 276.63C313.372 276.662 313.612 276.677 313.831 276.677C314.242 276.677 314.609 276.63 314.932 276.537C315.255 276.438 315.529 276.287 315.753 276.083C315.977 275.88 316.148 275.625 316.268 275.318C316.388 275.011 316.448 274.646 316.448 274.224C316.448 273.479 316.219 272.912 315.76 272.521C315.302 272.125 314.635 271.927 313.76 271.927C313.62 271.927 313.466 271.935 313.299 271.951C313.138 271.961 312.974 271.977 312.807 271.998C312.646 272.018 312.49 272.042 312.339 272.068C312.193 272.089 312.065 272.11 311.956 272.13L311.253 271.685L311.682 266.31H317.073V267.607H312.917L312.612 270.88C312.779 270.849 312.997 270.815 313.268 270.779C313.544 270.742 313.87 270.724 314.245 270.724ZM323.057 270.724C323.573 270.724 324.052 270.797 324.495 270.943C324.943 271.083 325.331 271.294 325.659 271.576C325.992 271.857 326.253 272.206 326.44 272.623C326.628 273.039 326.721 273.521 326.721 274.068C326.721 274.662 326.633 275.195 326.456 275.669C326.279 276.143 326.016 276.544 325.667 276.873C325.318 277.201 324.885 277.453 324.37 277.63C323.859 277.802 323.271 277.888 322.604 277.888C322.339 277.888 322.075 277.875 321.815 277.849C321.56 277.823 321.312 277.784 321.073 277.732C320.839 277.685 320.615 277.623 320.401 277.544C320.187 277.466 319.995 277.375 319.823 277.271V275.927C319.995 276.047 320.195 276.154 320.424 276.248C320.659 276.341 320.904 276.419 321.159 276.482C321.414 276.544 321.669 276.594 321.924 276.63C322.185 276.662 322.424 276.677 322.643 276.677C323.055 276.677 323.422 276.63 323.745 276.537C324.068 276.438 324.341 276.287 324.565 276.083C324.789 275.88 324.961 275.625 325.081 275.318C325.2 275.011 325.26 274.646 325.26 274.224C325.26 273.479 325.031 272.912 324.573 272.521C324.115 272.125 323.448 271.927 322.573 271.927C322.432 271.927 322.279 271.935 322.112 271.951C321.95 271.961 321.786 271.977 321.62 271.998C321.458 272.018 321.302 272.042 321.151 272.068C321.005 272.089 320.878 272.11 320.768 272.13L320.065 271.685L320.495 266.31H325.885V267.607H321.729L321.424 270.88C321.591 270.849 321.81 270.815 322.081 270.779C322.357 270.742 322.682 270.724 323.057 270.724Z" fill="#00203F"/>
<path d="M526.178 41.2729C527.475 41.2729 528.416 40.9253 529.002 40.23C529.596 39.5269 529.893 38.4019 529.893 36.855V36.3511C529.893 34.6323 529.596 33.3823 529.002 32.6011C528.408 31.8198 527.451 31.4292 526.131 31.4292C525.053 31.4292 524.217 31.8589 523.623 32.7183C523.037 33.5698 522.744 34.7886 522.744 36.3745C522.744 37.9683 523.029 39.1831 523.6 40.019C524.178 40.855 525.037 41.2729 526.178 41.2729ZM529.869 42.644L529.939 41.062H529.846C528.979 42.3511 527.65 42.9956 525.861 42.9956C524.197 42.9956 522.896 42.4175 521.959 41.2612C521.029 40.0972 520.564 38.4604 520.564 36.3511C520.564 34.2808 521.033 32.6479 521.971 31.4526C522.916 30.2573 524.205 29.6597 525.838 29.6597C527.58 29.6597 528.924 30.3081 529.869 31.605H529.998L530.279 29.894H531.955V42.9722C531.955 44.8159 531.486 46.2026 530.549 47.1323C529.619 48.062 528.17 48.5269 526.201 48.5269C524.326 48.5269 522.783 48.2534 521.572 47.7065V45.7612C522.822 46.4331 524.404 46.769 526.318 46.769C527.412 46.769 528.275 46.4487 528.908 45.8081C529.549 45.1675 529.869 44.2808 529.869 43.1479V42.644ZM542.045 29.6597C542.615 29.6597 543.119 29.7065 543.557 29.8003L543.299 31.7456C542.822 31.6362 542.357 31.5815 541.904 31.5815C541.225 31.5815 540.592 31.769 540.006 32.144C539.428 32.519 538.975 33.0386 538.646 33.7026C538.318 34.3589 538.154 35.0894 538.154 35.894V42.7612H536.045V29.894H537.779L538.014 32.2495H538.107C538.6 31.3979 539.182 30.7534 539.854 30.3159C540.525 29.8784 541.256 29.6597 542.045 29.6597ZM551.197 42.9956C549.268 42.9956 547.752 42.4136 546.65 41.2495C545.557 40.0776 545.01 38.4683 545.01 36.4214C545.01 34.3589 545.521 32.7183 546.545 31.4995C547.568 30.2729 548.951 29.6597 550.693 29.6597C552.311 29.6597 553.6 30.1831 554.561 31.23C555.521 32.269 556.002 33.6792 556.002 35.4604V36.7378H547.189C547.229 38.1987 547.6 39.3081 548.303 40.0659C549.006 40.8237 550.002 41.2026 551.291 41.2026C551.979 41.2026 552.631 41.144 553.248 41.0269C553.865 40.9019 554.588 40.6636 555.416 40.312V42.1636C554.705 42.4683 554.037 42.6831 553.412 42.8081C552.787 42.9331 552.049 42.9956 551.197 42.9956ZM550.67 31.3823C549.662 31.3823 548.865 31.7065 548.279 32.355C547.693 33.0034 547.346 33.9058 547.236 35.062H553.787C553.771 33.8589 553.494 32.9448 552.955 32.3198C552.416 31.6948 551.654 31.3823 550.67 31.3823ZM564.744 42.9956C562.814 42.9956 561.299 42.4136 560.197 41.2495C559.104 40.0776 558.557 38.4683 558.557 36.4214C558.557 34.3589 559.068 32.7183 560.092 31.4995C561.115 30.2729 562.498 29.6597 564.24 29.6597C565.857 29.6597 567.146 30.1831 568.107 31.23C569.068 32.269 569.549 33.6792 569.549 35.4604V36.7378H560.736C560.775 38.1987 561.146 39.3081 561.85 40.0659C562.553 40.8237 563.549 41.2026 564.838 41.2026C565.525 41.2026 566.178 41.144 566.795 41.0269C567.412 40.9019 568.135 40.6636 568.963 40.312V42.1636C568.252 42.4683 567.584 42.6831 566.959 42.8081C566.334 42.9331 565.596 42.9956 564.744 42.9956ZM564.217 31.3823C563.209 31.3823 562.412 31.7065 561.826 32.355C561.24 33.0034 560.893 33.9058 560.783 35.062H567.334C567.318 33.8589 567.041 32.9448 566.502 32.3198C565.963 31.6948 565.201 31.3823 564.217 31.3823ZM581.584 42.7612V34.5347C581.584 33.4878 581.35 32.7104 580.881 32.2026C580.42 31.687 579.693 31.4292 578.701 31.4292C577.381 31.4292 576.42 31.7964 575.818 32.5308C575.225 33.2573 574.928 34.4448 574.928 36.0933V42.7612H572.818V29.894H574.518L574.834 31.6519H574.951C575.35 31.019 575.908 30.5308 576.627 30.187C577.346 29.8354 578.139 29.6597 579.006 29.6597C580.584 29.6597 581.756 30.0425 582.521 30.8081C583.287 31.5737 583.67 32.7651 583.67 34.3823V42.7612H581.584Z" fill="white"/>
<path d="M529.529 260.971H528.092V255.643H522.232V260.971H520.795V249.549H522.232V254.377H528.092V249.549H529.529V260.971ZM536.107 261.127C534.821 261.127 533.811 260.739 533.076 259.963C532.347 259.182 531.982 258.109 531.982 256.744C531.982 255.369 532.324 254.275 533.006 253.463C533.688 252.645 534.61 252.236 535.771 252.236C536.85 252.236 537.709 252.585 538.35 253.283C538.99 253.976 539.311 254.916 539.311 256.104V256.955H533.436C533.462 257.929 533.709 258.669 534.178 259.174C534.646 259.679 535.311 259.932 536.17 259.932C536.628 259.932 537.063 259.893 537.475 259.814C537.886 259.731 538.368 259.572 538.92 259.338V260.572C538.446 260.775 538.001 260.919 537.584 261.002C537.167 261.085 536.675 261.127 536.107 261.127ZM535.756 253.385C535.084 253.385 534.553 253.601 534.162 254.033C533.771 254.465 533.54 255.067 533.467 255.838H537.834C537.824 255.036 537.639 254.426 537.279 254.01C536.92 253.593 536.412 253.385 535.756 253.385ZM543.365 256.588L540.404 252.393H542.006L544.217 255.627L546.404 252.393H547.99L545.029 256.588L548.154 260.971H546.553L544.217 257.549L541.85 260.971H540.264L543.365 256.588Z" fill="white"/>
<path d="M526.92 271.427L526.459 273.857H528.584V274.912H526.248L525.709 277.732H524.584L525.139 274.912H522.912L522.365 277.732H521.264L521.779 274.912H519.787V273.857H521.982L522.467 271.427H520.365V270.38H522.654L523.186 267.615H524.311L523.787 270.38H526.029L526.568 267.615H527.67L527.131 270.38H529.139V271.427H526.92ZM523.107 273.857H525.342L525.811 271.427H523.584L523.107 273.857ZM537.568 277.732H530.443V276.513L533.178 273.537C533.568 273.115 533.917 272.729 534.225 272.38C534.532 272.031 534.792 271.69 535.006 271.357C535.225 271.024 535.391 270.69 535.506 270.357C535.62 270.018 535.678 269.651 535.678 269.255C535.678 268.948 535.633 268.677 535.545 268.443C535.456 268.208 535.329 268.011 535.162 267.849C535.001 267.682 534.808 267.557 534.584 267.474C534.36 267.391 534.11 267.349 533.834 267.349C533.339 267.349 532.891 267.451 532.49 267.654C532.094 267.852 531.717 268.107 531.357 268.419L530.561 267.49C530.769 267.302 530.993 267.128 531.232 266.966C531.472 266.8 531.73 266.656 532.006 266.537C532.282 266.417 532.574 266.323 532.881 266.255C533.188 266.182 533.511 266.146 533.85 266.146C534.35 266.146 534.8 266.216 535.201 266.357C535.607 266.498 535.951 266.701 536.232 266.966C536.514 267.227 536.73 267.547 536.881 267.927C537.037 268.302 537.115 268.727 537.115 269.201C537.115 269.643 537.045 270.065 536.904 270.466C536.769 270.867 536.579 271.263 536.334 271.654C536.094 272.039 535.805 272.427 535.467 272.818C535.133 273.208 534.771 273.615 534.381 274.037L532.186 276.373V276.435H537.568V277.732ZM544.951 267.412C543.722 267.412 542.756 267.823 542.053 268.646C541.35 269.469 540.998 270.594 540.998 272.021C540.998 273.495 541.339 274.633 542.021 275.435C542.704 276.232 543.675 276.63 544.936 276.63C545.748 276.63 546.662 276.479 547.678 276.177V277.427C547.193 277.604 546.727 277.724 546.279 277.787C545.831 277.854 545.316 277.888 544.732 277.888C543.05 277.888 541.753 277.378 540.842 276.357C539.936 275.331 539.482 273.88 539.482 272.005C539.482 270.828 539.699 269.797 540.131 268.912C540.568 268.026 541.201 267.344 542.029 266.865C542.863 266.386 543.842 266.146 544.967 266.146C546.175 266.146 547.227 266.37 548.123 266.818L547.545 268.037C546.633 267.62 545.769 267.412 544.951 267.412ZM559.318 271.912C559.318 273.797 558.803 275.24 557.771 276.24C556.745 277.235 555.271 277.732 553.35 277.732H550.17V266.31H553.686C555.462 266.31 556.844 266.8 557.834 267.779C558.824 268.753 559.318 270.13 559.318 271.912ZM557.803 271.958C557.803 270.505 557.443 269.406 556.725 268.662C556.011 267.912 554.93 267.537 553.482 267.537H551.607V276.498H553.162C556.256 276.498 557.803 274.985 557.803 271.958ZM565.857 277.732H564.482V270.599C564.482 270.375 564.482 270.136 564.482 269.88C564.488 269.625 564.493 269.373 564.498 269.123C564.508 268.867 564.516 268.625 564.521 268.396C564.532 268.162 564.54 267.956 564.545 267.779C564.456 267.873 564.378 267.953 564.311 268.021C564.243 268.089 564.173 268.154 564.1 268.216C564.032 268.279 563.959 268.347 563.881 268.419C563.803 268.487 563.709 268.568 563.6 268.662L562.443 269.607L561.693 268.646L564.686 266.31H565.857V277.732ZM573.529 266.13C573.967 266.13 574.378 266.188 574.764 266.302C575.154 266.417 575.495 266.589 575.787 266.818C576.084 267.047 576.318 267.333 576.49 267.677C576.662 268.021 576.748 268.422 576.748 268.88C576.748 269.229 576.696 269.544 576.592 269.826C576.488 270.107 576.344 270.362 576.162 270.591C575.98 270.815 575.764 271.018 575.514 271.201C575.264 271.378 574.993 271.539 574.701 271.685C575.003 271.847 575.298 272.026 575.584 272.224C575.876 272.422 576.133 272.646 576.357 272.896C576.587 273.141 576.769 273.417 576.904 273.724C577.045 274.031 577.115 274.375 577.115 274.755C577.115 275.235 577.027 275.669 576.85 276.06C576.678 276.445 576.433 276.774 576.115 277.044C575.803 277.315 575.425 277.524 574.982 277.669C574.545 277.815 574.061 277.888 573.529 277.888C572.956 277.888 572.446 277.818 571.998 277.677C571.555 277.537 571.18 277.336 570.873 277.076C570.571 276.81 570.339 276.487 570.178 276.107C570.021 275.727 569.943 275.297 569.943 274.818C569.943 274.427 570.001 274.076 570.115 273.763C570.235 273.451 570.394 273.169 570.592 272.919C570.79 272.669 571.024 272.448 571.295 272.255C571.566 272.063 571.852 271.893 572.154 271.748C571.899 271.586 571.66 271.412 571.436 271.224C571.212 271.031 571.016 270.818 570.85 270.583C570.688 270.349 570.558 270.091 570.459 269.81C570.365 269.524 570.318 269.208 570.318 268.865C570.318 268.412 570.404 268.016 570.576 267.677C570.753 267.333 570.99 267.047 571.287 266.818C571.584 266.589 571.925 266.417 572.311 266.302C572.701 266.188 573.107 266.13 573.529 266.13ZM571.342 274.833C571.342 275.11 571.383 275.365 571.467 275.599C571.55 275.828 571.68 276.026 571.857 276.193C572.035 276.354 572.258 276.482 572.529 276.576C572.8 276.664 573.123 276.708 573.498 276.708C573.863 276.708 574.183 276.664 574.459 276.576C574.74 276.482 574.975 276.352 575.162 276.185C575.35 276.013 575.49 275.807 575.584 275.568C575.678 275.328 575.725 275.063 575.725 274.771C575.725 274.5 575.673 274.255 575.568 274.037C575.469 273.818 575.324 273.615 575.131 273.427C574.943 273.24 574.717 273.063 574.451 272.896C574.186 272.729 573.889 272.565 573.561 272.404L573.326 272.294C572.67 272.607 572.175 272.966 571.842 273.373C571.508 273.774 571.342 274.261 571.342 274.833ZM573.514 267.318C572.962 267.318 572.521 267.456 572.193 267.732C571.87 268.008 571.709 268.409 571.709 268.935C571.709 269.232 571.753 269.487 571.842 269.701C571.936 269.914 572.063 270.104 572.225 270.271C572.386 270.438 572.579 270.589 572.803 270.724C573.032 270.854 573.279 270.982 573.545 271.107C573.795 270.992 574.029 270.867 574.248 270.732C574.472 270.597 574.665 270.443 574.826 270.271C574.993 270.099 575.123 269.904 575.217 269.685C575.311 269.466 575.357 269.216 575.357 268.935C575.357 268.409 575.193 268.008 574.865 267.732C574.537 267.456 574.087 267.318 573.514 267.318ZM586.646 277.732L585.271 274.193H580.74L579.381 277.732H577.928L582.389 266.263H583.686L588.139 277.732H586.646ZM584.842 272.919L583.561 269.458L583.014 267.748C582.857 268.373 582.693 268.943 582.521 269.458L581.225 272.919H584.842Z" fill="white"/>
<path d="M623.324 255.033H625.035C625.962 255.033 626.639 254.851 627.066 254.486C627.493 254.122 627.707 253.58 627.707 252.861C627.707 252.143 627.49 251.619 627.058 251.291C626.626 250.958 625.925 250.791 624.957 250.791H623.324V255.033ZM623.324 256.252V260.971H621.886V249.549H625.035C626.451 249.549 627.498 249.82 628.175 250.361C628.858 250.898 629.199 251.708 629.199 252.791C629.199 254.307 628.436 255.327 626.91 255.854L630.042 260.971H628.363L625.597 256.252H623.324ZM636.8 254.939H640.746V260.541C640.141 260.734 639.527 260.88 638.902 260.979C638.277 261.077 637.553 261.127 636.73 261.127C634.99 261.127 633.644 260.611 632.691 259.58C631.738 258.549 631.261 257.109 631.261 255.26C631.261 254.067 631.498 253.025 631.972 252.135C632.446 251.244 633.128 250.564 634.019 250.096C634.915 249.622 635.97 249.385 637.183 249.385C638.402 249.385 639.537 249.609 640.589 250.057L640.042 251.307C639.037 250.869 638.056 250.65 637.097 250.65C635.738 250.65 634.675 251.062 633.91 251.885C633.144 252.708 632.761 253.833 632.761 255.26C632.761 256.77 633.128 257.919 633.863 258.705C634.597 259.492 635.665 259.885 637.066 259.885C637.832 259.885 638.579 259.794 639.308 259.611V256.221H636.8V254.939ZM643.496 249.549H646.753C648.285 249.549 649.389 249.778 650.066 250.236C650.748 250.689 651.089 251.403 651.089 252.377C651.089 253.054 650.904 253.614 650.535 254.057C650.165 254.494 649.626 254.778 648.917 254.908V254.986C649.798 255.137 650.444 255.442 650.855 255.9C651.272 256.359 651.48 256.965 651.48 257.721C651.48 258.742 651.131 259.538 650.433 260.111C649.735 260.684 648.761 260.971 647.511 260.971H643.496V249.549ZM644.933 254.408H647.042C647.938 254.408 648.589 254.265 648.996 253.979C649.402 253.692 649.605 253.213 649.605 252.541C649.605 251.916 649.381 251.465 648.933 251.189C648.49 250.913 647.787 250.775 646.824 250.775H644.933V254.408ZM644.933 255.611V259.752H647.238C648.154 259.752 648.834 259.575 649.277 259.221C649.72 258.867 649.941 258.33 649.941 257.611C649.941 256.929 649.707 256.426 649.238 256.104C648.769 255.775 648.066 255.611 647.128 255.611H644.933Z" fill="white"/>
<path d="M628.824 275.169H627.16V277.732H625.785V275.169H620.511V273.927L625.691 266.248H627.16V273.873H628.824V275.169ZM625.785 273.873V271.091C625.785 270.8 625.787 270.495 625.792 270.177C625.803 269.854 625.813 269.542 625.824 269.24C625.834 268.932 625.845 268.646 625.855 268.38C625.871 268.115 625.881 267.893 625.886 267.716H625.816C625.779 267.82 625.733 267.938 625.675 268.068C625.623 268.193 625.563 268.32 625.496 268.451C625.433 268.576 625.368 268.698 625.3 268.818C625.233 268.938 625.17 269.039 625.113 269.123L621.902 273.873H625.785ZM637.636 275.169H635.972V277.732H634.597V275.169H629.324V273.927L634.503 266.248H635.972V273.873H637.636V275.169ZM634.597 273.873V271.091C634.597 270.8 634.6 270.495 634.605 270.177C634.615 269.854 634.626 269.542 634.636 269.24C634.647 268.932 634.657 268.646 634.667 268.38C634.683 268.115 634.694 267.893 634.699 267.716H634.628C634.592 267.82 634.545 267.938 634.488 268.068C634.436 268.193 634.376 268.32 634.308 268.451C634.246 268.576 634.181 268.698 634.113 268.818C634.045 268.938 633.983 269.039 633.925 269.123L630.714 273.873H634.597ZM662.457 277.732H655.332V276.513L658.066 273.537C658.457 273.115 658.806 272.729 659.113 272.38C659.42 272.031 659.681 271.69 659.894 271.357C660.113 271.024 660.279 270.69 660.394 270.357C660.509 270.018 660.566 269.651 660.566 269.255C660.566 268.948 660.522 268.677 660.433 268.443C660.345 268.208 660.217 268.011 660.05 267.849C659.889 267.682 659.696 267.557 659.472 267.474C659.248 267.391 658.998 267.349 658.722 267.349C658.227 267.349 657.779 267.451 657.378 267.654C656.983 267.852 656.605 268.107 656.246 268.419L655.449 267.49C655.657 267.302 655.881 267.128 656.121 266.966C656.36 266.8 656.618 266.656 656.894 266.537C657.17 266.417 657.462 266.323 657.769 266.255C658.076 266.182 658.399 266.146 658.738 266.146C659.238 266.146 659.688 266.216 660.089 266.357C660.496 266.498 660.839 266.701 661.121 266.966C661.402 267.227 661.618 267.547 661.769 267.927C661.925 268.302 662.003 268.727 662.003 269.201C662.003 269.643 661.933 270.065 661.792 270.466C661.657 270.867 661.467 271.263 661.222 271.654C660.983 272.039 660.694 272.427 660.355 272.818C660.022 273.208 659.66 273.615 659.269 274.037L657.074 276.373V276.435H662.457V277.732ZM671.457 272.005C671.457 272.927 671.389 273.753 671.253 274.482C671.123 275.211 670.91 275.828 670.613 276.333C670.321 276.839 669.944 277.224 669.48 277.49C669.016 277.755 668.454 277.888 667.792 277.888C667.178 277.888 666.641 277.755 666.183 277.49C665.73 277.224 665.352 276.839 665.05 276.333C664.753 275.828 664.529 275.211 664.378 274.482C664.233 273.753 664.16 272.927 664.16 272.005C664.16 271.083 664.225 270.258 664.355 269.529C664.49 268.8 664.701 268.185 664.988 267.685C665.279 267.18 665.654 266.794 666.113 266.529C666.576 266.263 667.136 266.13 667.792 266.13C668.412 266.13 668.951 266.263 669.41 266.529C669.868 266.789 670.248 267.172 670.55 267.677C670.852 268.177 671.079 268.792 671.23 269.521C671.381 270.25 671.457 271.078 671.457 272.005ZM665.605 272.005C665.605 272.787 665.644 273.469 665.722 274.052C665.8 274.636 665.925 275.123 666.097 275.513C666.269 275.899 666.493 276.19 666.769 276.388C667.05 276.581 667.391 276.677 667.792 276.677C668.194 276.677 668.535 276.581 668.816 276.388C669.097 276.195 669.326 275.906 669.503 275.521C669.686 275.136 669.816 274.651 669.894 274.068C669.977 273.479 670.019 272.792 670.019 272.005C670.019 271.224 669.977 270.542 669.894 269.958C669.816 269.375 669.686 268.891 669.503 268.505C669.326 268.12 669.097 267.831 668.816 267.638C668.535 267.445 668.194 267.349 667.792 267.349C667.391 267.349 667.05 267.445 666.769 267.638C666.493 267.831 666.269 268.12 666.097 268.505C665.925 268.891 665.8 269.375 665.722 269.958C665.644 270.542 665.605 271.224 665.605 272.005ZM680.238 271.185C680.238 271.732 680.209 272.279 680.152 272.826C680.1 273.367 680.003 273.886 679.863 274.38C679.727 274.875 679.54 275.339 679.3 275.771C679.061 276.198 678.756 276.568 678.386 276.88C678.016 277.193 677.574 277.44 677.058 277.623C676.542 277.8 675.938 277.888 675.246 277.888C675.147 277.888 675.037 277.886 674.917 277.88C674.798 277.875 674.678 277.865 674.558 277.849C674.438 277.839 674.321 277.826 674.207 277.81C674.092 277.794 673.99 277.774 673.902 277.748V276.529C674.084 276.597 674.29 276.646 674.519 276.677C674.748 276.708 674.975 276.724 675.199 276.724C675.902 276.724 676.48 276.602 676.933 276.357C677.386 276.112 677.746 275.781 678.011 275.365C678.277 274.943 678.464 274.453 678.574 273.896C678.688 273.339 678.759 272.75 678.785 272.13H678.683C678.579 272.318 678.454 272.492 678.308 272.654C678.162 272.815 677.99 272.956 677.792 273.076C677.595 273.195 677.371 273.289 677.121 273.357C676.871 273.425 676.592 273.458 676.285 273.458C675.79 273.458 675.342 273.383 674.941 273.232C674.54 273.076 674.199 272.849 673.917 272.552C673.636 272.255 673.417 271.893 673.261 271.466C673.11 271.034 673.035 270.542 673.035 269.99C673.035 269.396 673.115 268.862 673.277 268.388C673.444 267.909 673.675 267.505 673.972 267.177C674.274 266.844 674.639 266.589 675.066 266.412C675.498 266.235 675.98 266.146 676.511 266.146C677.037 266.146 677.527 266.248 677.98 266.451C678.433 266.654 678.826 266.964 679.16 267.38C679.493 267.797 679.756 268.323 679.949 268.958C680.141 269.589 680.238 270.331 680.238 271.185ZM676.527 267.349C676.214 267.349 675.928 267.401 675.667 267.505C675.412 267.61 675.191 267.771 675.003 267.99C674.816 268.208 674.67 268.485 674.566 268.818C674.467 269.146 674.417 269.537 674.417 269.99C674.417 270.354 674.459 270.682 674.542 270.974C674.631 271.261 674.761 271.505 674.933 271.708C675.105 271.912 675.319 272.068 675.574 272.177C675.834 272.287 676.136 272.341 676.48 272.341C676.834 272.341 677.154 272.281 677.441 272.162C677.727 272.037 677.972 271.878 678.175 271.685C678.378 271.487 678.535 271.263 678.644 271.013C678.759 270.763 678.816 270.513 678.816 270.263C678.816 269.914 678.766 269.568 678.667 269.224C678.574 268.875 678.431 268.563 678.238 268.287C678.05 268.005 677.813 267.779 677.527 267.607C677.24 267.435 676.907 267.349 676.527 267.349ZM703.199 277.732H701.824V270.599C701.824 270.375 701.824 270.136 701.824 269.88C701.829 269.625 701.834 269.373 701.839 269.123C701.85 268.867 701.858 268.625 701.863 268.396C701.873 268.162 701.881 267.956 701.886 267.779C701.798 267.873 701.72 267.953 701.652 268.021C701.584 268.089 701.514 268.154 701.441 268.216C701.373 268.279 701.3 268.347 701.222 268.419C701.144 268.487 701.05 268.568 700.941 268.662L699.785 269.607L699.035 268.646L702.027 266.31H703.199V277.732ZM713.964 268.982C713.964 269.362 713.904 269.708 713.785 270.021C713.665 270.333 713.496 270.604 713.277 270.833C713.063 271.063 712.806 271.253 712.503 271.404C712.201 271.55 711.865 271.654 711.496 271.716V271.763C712.417 271.878 713.118 272.172 713.597 272.646C714.076 273.115 714.316 273.727 714.316 274.482C714.316 274.982 714.23 275.44 714.058 275.857C713.891 276.274 713.636 276.633 713.292 276.935C712.949 277.237 712.514 277.472 711.988 277.638C711.462 277.805 710.839 277.888 710.121 277.888C709.553 277.888 709.016 277.844 708.511 277.755C708.011 277.667 707.54 277.505 707.097 277.271V275.943C707.55 276.182 708.04 276.367 708.566 276.498C709.097 276.628 709.605 276.693 710.089 276.693C710.569 276.693 710.983 276.641 711.332 276.537C711.681 276.432 711.967 276.284 712.191 276.091C712.42 275.899 712.587 275.662 712.691 275.38C712.8 275.099 712.855 274.784 712.855 274.435C712.855 274.081 712.785 273.779 712.644 273.529C712.509 273.274 712.313 273.065 712.058 272.904C711.803 272.737 711.49 272.615 711.121 272.537C710.756 272.458 710.342 272.419 709.878 272.419H708.839V271.24H709.878C710.3 271.24 710.675 271.188 711.003 271.083C711.332 270.979 711.605 270.831 711.824 270.638C712.048 270.445 712.217 270.216 712.332 269.951C712.446 269.685 712.503 269.393 712.503 269.076C712.503 268.805 712.457 268.563 712.363 268.349C712.269 268.136 712.136 267.956 711.964 267.81C711.792 267.659 711.587 267.544 711.347 267.466C711.108 267.388 710.842 267.349 710.55 267.349C709.993 267.349 709.501 267.438 709.074 267.615C708.652 267.787 708.248 268.013 707.863 268.294L707.144 267.318C707.342 267.156 707.561 267.005 707.8 266.865C708.045 266.724 708.311 266.602 708.597 266.498C708.884 266.388 709.188 266.302 709.511 266.24C709.839 266.177 710.186 266.146 710.55 266.146C711.113 266.146 711.605 266.216 712.027 266.357C712.454 266.498 712.811 266.695 713.097 266.951C713.384 267.201 713.6 267.5 713.746 267.849C713.891 268.193 713.964 268.57 713.964 268.982ZM719.683 266.13C720.121 266.13 720.532 266.188 720.917 266.302C721.308 266.417 721.649 266.589 721.941 266.818C722.238 267.047 722.472 267.333 722.644 267.677C722.816 268.021 722.902 268.422 722.902 268.88C722.902 269.229 722.85 269.544 722.746 269.826C722.641 270.107 722.498 270.362 722.316 270.591C722.134 270.815 721.917 271.018 721.667 271.201C721.417 271.378 721.147 271.539 720.855 271.685C721.157 271.847 721.451 272.026 721.738 272.224C722.029 272.422 722.287 272.646 722.511 272.896C722.74 273.141 722.923 273.417 723.058 273.724C723.199 274.031 723.269 274.375 723.269 274.755C723.269 275.235 723.181 275.669 723.003 276.06C722.832 276.445 722.587 276.774 722.269 277.044C721.957 277.315 721.579 277.524 721.136 277.669C720.699 277.815 720.214 277.888 719.683 277.888C719.11 277.888 718.6 277.818 718.152 277.677C717.709 277.537 717.334 277.336 717.027 277.076C716.725 276.81 716.493 276.487 716.332 276.107C716.175 275.727 716.097 275.297 716.097 274.818C716.097 274.427 716.154 274.076 716.269 273.763C716.389 273.451 716.548 273.169 716.746 272.919C716.944 272.669 717.178 272.448 717.449 272.255C717.72 272.063 718.006 271.893 718.308 271.748C718.053 271.586 717.813 271.412 717.589 271.224C717.365 271.031 717.17 270.818 717.003 270.583C716.842 270.349 716.712 270.091 716.613 269.81C716.519 269.524 716.472 269.208 716.472 268.865C716.472 268.412 716.558 268.016 716.73 267.677C716.907 267.333 717.144 267.047 717.441 266.818C717.738 266.589 718.079 266.417 718.464 266.302C718.855 266.188 719.261 266.13 719.683 266.13ZM717.496 274.833C717.496 275.11 717.537 275.365 717.621 275.599C717.704 275.828 717.834 276.026 718.011 276.193C718.188 276.354 718.412 276.482 718.683 276.576C718.954 276.664 719.277 276.708 719.652 276.708C720.016 276.708 720.337 276.664 720.613 276.576C720.894 276.482 721.128 276.352 721.316 276.185C721.503 276.013 721.644 275.807 721.738 275.568C721.832 275.328 721.878 275.063 721.878 274.771C721.878 274.5 721.826 274.255 721.722 274.037C721.623 273.818 721.477 273.615 721.285 273.427C721.097 273.24 720.871 273.063 720.605 272.896C720.339 272.729 720.042 272.565 719.714 272.404L719.48 272.294C718.824 272.607 718.329 272.966 717.996 273.373C717.662 273.774 717.496 274.261 717.496 274.833ZM719.667 267.318C719.115 267.318 718.675 267.456 718.347 267.732C718.024 268.008 717.863 268.409 717.863 268.935C717.863 269.232 717.907 269.487 717.996 269.701C718.089 269.914 718.217 270.104 718.378 270.271C718.54 270.438 718.733 270.589 718.957 270.724C719.186 270.854 719.433 270.982 719.699 271.107C719.949 270.992 720.183 270.867 720.402 270.732C720.626 270.597 720.819 270.443 720.98 270.271C721.147 270.099 721.277 269.904 721.371 269.685C721.464 269.466 721.511 269.216 721.511 268.935C721.511 268.409 721.347 268.008 721.019 267.732C720.691 267.456 720.24 267.318 719.667 267.318Z" fill="white"/>
<path d="M494.409 299.841H739V405.039C739 432.653 716.614 455.039 689 455.039H494.409V299.841Z" fill="#00203F"/>
<path d="M523.389 346.328H521.279V333.46H523.389V346.328ZM521.115 329.98C521.115 329.511 521.232 329.171 521.467 328.96C521.709 328.75 522.006 328.644 522.357 328.644C522.686 328.644 522.971 328.75 523.213 328.96C523.463 329.171 523.588 329.511 523.588 329.98C523.588 330.441 523.463 330.781 523.213 331C522.971 331.218 522.686 331.328 522.357 331.328C522.006 331.328 521.709 331.218 521.467 331C521.232 330.781 521.115 330.441 521.115 329.98ZM536.232 346.328V338.101C536.232 337.054 535.998 336.277 535.529 335.769C535.068 335.253 534.342 334.996 533.35 334.996C532.029 334.996 531.068 335.363 530.467 336.097C529.873 336.824 529.576 338.011 529.576 339.66V346.328H527.467V333.46H529.166L529.482 335.218H529.6C529.998 334.585 530.557 334.097 531.275 333.753C531.994 333.402 532.787 333.226 533.654 333.226C535.232 333.226 536.404 333.609 537.17 334.375C537.936 335.14 538.318 336.332 538.318 337.949V346.328H536.232ZM546.861 346.562C545.189 346.562 543.893 345.984 542.971 344.828C542.049 343.671 541.588 342.035 541.588 339.917C541.588 337.816 542.049 336.175 542.971 334.996C543.9 333.816 545.205 333.226 546.885 333.226C548.611 333.226 549.939 333.859 550.869 335.125H551.021C550.998 334.968 550.967 334.656 550.928 334.187C550.889 333.71 550.869 333.39 550.869 333.226V328.093H552.979V346.328H551.279L550.963 344.605H550.869C549.971 345.91 548.635 346.562 546.861 346.562ZM547.201 344.816C548.482 344.816 549.416 344.468 550.002 343.773C550.596 343.07 550.893 341.921 550.893 340.328V339.941C550.893 338.152 550.592 336.878 549.99 336.121C549.396 335.355 548.459 334.972 547.178 334.972C546.092 334.972 545.252 335.406 544.658 336.273C544.064 337.132 543.768 338.363 543.768 339.964C543.768 341.558 544.061 342.765 544.646 343.585C545.24 344.406 546.092 344.816 547.201 344.816ZM559.178 346.328H557.068V333.46H559.178V346.328ZM556.904 329.98C556.904 329.511 557.021 329.171 557.256 328.96C557.498 328.75 557.795 328.644 558.146 328.644C558.475 328.644 558.76 328.75 559.002 328.96C559.252 329.171 559.377 329.511 559.377 329.98C559.377 330.441 559.252 330.781 559.002 331C558.76 331.218 558.475 331.328 558.146 331.328C557.795 331.328 557.498 331.218 557.256 331C557.021 330.781 556.904 330.441 556.904 329.98ZM568.154 344.839C569.451 344.839 570.393 344.492 570.979 343.796C571.572 343.093 571.869 341.968 571.869 340.421V339.917C571.869 338.199 571.572 336.949 570.979 336.167C570.385 335.386 569.428 334.996 568.107 334.996C567.029 334.996 566.193 335.425 565.6 336.285C565.014 337.136 564.721 338.355 564.721 339.941C564.721 341.535 565.006 342.75 565.576 343.585C566.154 344.421 567.014 344.839 568.154 344.839ZM571.846 346.21L571.916 344.628H571.822C570.955 345.917 569.627 346.562 567.838 346.562C566.174 346.562 564.873 345.984 563.936 344.828C563.006 343.664 562.541 342.027 562.541 339.917C562.541 337.847 563.01 336.214 563.947 335.019C564.893 333.824 566.182 333.226 567.814 333.226C569.557 333.226 570.9 333.875 571.846 335.171H571.975L572.256 333.46H573.932V346.539C573.932 348.382 573.463 349.769 572.525 350.699C571.596 351.628 570.146 352.093 568.178 352.093C566.303 352.093 564.76 351.82 563.549 351.273V349.328C564.799 350 566.381 350.335 568.295 350.335C569.389 350.335 570.252 350.015 570.885 349.375C571.525 348.734 571.846 347.847 571.846 346.714V346.21ZM589.201 339.871C589.201 341.972 588.67 343.613 587.607 344.792C586.545 345.972 585.076 346.562 583.201 346.562C582.037 346.562 581.006 346.292 580.107 345.753C579.209 345.207 578.518 344.425 578.033 343.41C577.549 342.394 577.307 341.214 577.307 339.871C577.307 337.777 577.83 336.148 578.877 334.984C579.924 333.812 581.393 333.226 583.283 333.226C585.096 333.226 586.533 333.824 587.596 335.019C588.666 336.207 589.201 337.824 589.201 339.871ZM579.486 339.871C579.486 341.488 579.803 342.718 580.436 343.562C581.076 344.398 582.018 344.816 583.26 344.816C584.486 344.816 585.42 344.398 586.061 343.562C586.701 342.718 587.021 341.488 587.021 339.871C587.021 338.253 586.697 337.039 586.049 336.226C585.408 335.406 584.467 334.996 583.225 334.996C580.732 334.996 579.486 336.621 579.486 339.871Z" fill="white"/>
<path d="M529.529 421.82H528.092V416.492H522.232V421.82H520.795V410.398H522.232V415.226H528.092V410.398H529.529V421.82ZM536.107 421.976C534.821 421.976 533.811 421.588 533.076 420.812C532.347 420.031 531.982 418.958 531.982 417.593C531.982 416.218 532.324 415.125 533.006 414.312C533.688 413.494 534.61 413.085 535.771 413.085C536.85 413.085 537.709 413.434 538.35 414.132C538.99 414.825 539.311 415.765 539.311 416.953V417.804H533.436C533.462 418.778 533.709 419.518 534.178 420.023C534.646 420.528 535.311 420.781 536.17 420.781C536.628 420.781 537.063 420.742 537.475 420.664C537.886 420.58 538.368 420.421 538.92 420.187V421.421C538.446 421.625 538.001 421.768 537.584 421.851C537.167 421.934 536.675 421.976 536.107 421.976ZM535.756 414.234C535.084 414.234 534.553 414.45 534.162 414.882C533.771 415.315 533.54 415.916 533.467 416.687H537.834C537.824 415.885 537.639 415.276 537.279 414.859C536.92 414.442 536.412 414.234 535.756 414.234ZM543.365 417.437L540.404 413.242H542.006L544.217 416.476L546.404 413.242H547.99L545.029 417.437L548.154 421.82H546.553L544.217 418.398L541.85 421.82H540.264L543.365 417.437Z" fill="white"/>
<path d="M526.92 431.805L526.459 434.234H528.584V435.289H526.248L525.709 438.109H524.584L525.139 435.289H522.912L522.365 438.109H521.264L521.779 435.289H519.787V434.234H521.982L522.467 431.805H520.365V430.758H522.654L523.186 427.992H524.311L523.787 430.758H526.029L526.568 427.992H527.67L527.131 430.758H529.139V431.805H526.92ZM523.107 434.234H525.342L525.811 431.805H523.584L523.107 434.234ZM537.756 432.383C537.756 433.305 537.688 434.13 537.553 434.859C537.423 435.589 537.209 436.206 536.912 436.711C536.62 437.216 536.243 437.602 535.779 437.867C535.316 438.133 534.753 438.266 534.092 438.266C533.477 438.266 532.941 438.133 532.482 437.867C532.029 437.602 531.652 437.216 531.35 436.711C531.053 436.206 530.829 435.589 530.678 434.859C530.532 434.13 530.459 433.305 530.459 432.383C530.459 431.461 530.524 430.635 530.654 429.906C530.79 429.177 531.001 428.562 531.287 428.062C531.579 427.557 531.954 427.172 532.412 426.906C532.876 426.641 533.436 426.508 534.092 426.508C534.712 426.508 535.251 426.641 535.709 426.906C536.167 427.167 536.548 427.549 536.85 428.055C537.152 428.555 537.378 429.169 537.529 429.898C537.68 430.628 537.756 431.456 537.756 432.383ZM531.904 432.383C531.904 433.164 531.943 433.846 532.021 434.43C532.1 435.013 532.225 435.5 532.396 435.891C532.568 436.276 532.792 436.568 533.068 436.766C533.35 436.958 533.691 437.055 534.092 437.055C534.493 437.055 534.834 436.958 535.115 436.766C535.396 436.573 535.626 436.284 535.803 435.898C535.985 435.513 536.115 435.029 536.193 434.445C536.277 433.857 536.318 433.169 536.318 432.383C536.318 431.602 536.277 430.919 536.193 430.336C536.115 429.753 535.985 429.268 535.803 428.883C535.626 428.497 535.396 428.208 535.115 428.016C534.834 427.823 534.493 427.727 534.092 427.727C533.691 427.727 533.35 427.823 533.068 428.016C532.792 428.208 532.568 428.497 532.396 428.883C532.225 429.268 532.1 429.753 532.021 430.336C531.943 430.919 531.904 431.602 531.904 432.383ZM546.568 432.383C546.568 433.305 546.501 434.13 546.365 434.859C546.235 435.589 546.021 436.206 545.725 436.711C545.433 437.216 545.055 437.602 544.592 437.867C544.128 438.133 543.566 438.266 542.904 438.266C542.29 438.266 541.753 438.133 541.295 437.867C540.842 437.602 540.464 437.216 540.162 436.711C539.865 436.206 539.641 435.589 539.49 434.859C539.344 434.13 539.271 433.305 539.271 432.383C539.271 431.461 539.337 430.635 539.467 429.906C539.602 429.177 539.813 428.562 540.1 428.062C540.391 427.557 540.766 427.172 541.225 426.906C541.688 426.641 542.248 426.508 542.904 426.508C543.524 426.508 544.063 426.641 544.521 426.906C544.98 427.167 545.36 427.549 545.662 428.055C545.964 428.555 546.191 429.169 546.342 429.898C546.493 430.628 546.568 431.456 546.568 432.383ZM540.717 432.383C540.717 433.164 540.756 433.846 540.834 434.43C540.912 435.013 541.037 435.5 541.209 435.891C541.381 436.276 541.605 436.568 541.881 436.766C542.162 436.958 542.503 437.055 542.904 437.055C543.305 437.055 543.646 436.958 543.928 436.766C544.209 436.573 544.438 436.284 544.615 435.898C544.798 435.513 544.928 435.029 545.006 434.445C545.089 433.857 545.131 433.169 545.131 432.383C545.131 431.602 545.089 430.919 545.006 430.336C544.928 429.753 544.798 429.268 544.615 428.883C544.438 428.497 544.209 428.208 543.928 428.016C543.646 427.823 543.305 427.727 542.904 427.727C542.503 427.727 542.162 427.823 541.881 428.016C541.605 428.208 541.381 428.497 541.209 428.883C541.037 429.268 540.912 429.753 540.834 430.336C540.756 430.919 540.717 431.602 540.717 432.383ZM555.193 438.109H548.068V436.891L550.803 433.914C551.193 433.492 551.542 433.107 551.85 432.758C552.157 432.409 552.417 432.068 552.631 431.734C552.85 431.401 553.016 431.068 553.131 430.734C553.245 430.396 553.303 430.029 553.303 429.633C553.303 429.326 553.258 429.055 553.17 428.82C553.081 428.586 552.954 428.388 552.787 428.227C552.626 428.06 552.433 427.935 552.209 427.852C551.985 427.768 551.735 427.727 551.459 427.727C550.964 427.727 550.516 427.828 550.115 428.031C549.719 428.229 549.342 428.484 548.982 428.797L548.186 427.867C548.394 427.68 548.618 427.505 548.857 427.344C549.097 427.177 549.355 427.034 549.631 426.914C549.907 426.794 550.199 426.701 550.506 426.633C550.813 426.56 551.136 426.523 551.475 426.523C551.975 426.523 552.425 426.594 552.826 426.734C553.232 426.875 553.576 427.078 553.857 427.344C554.139 427.604 554.355 427.924 554.506 428.305C554.662 428.68 554.74 429.104 554.74 429.578C554.74 430.021 554.67 430.443 554.529 430.844C554.394 431.245 554.204 431.641 553.959 432.031C553.719 432.417 553.43 432.805 553.092 433.195C552.758 433.586 552.396 433.992 552.006 434.414L549.811 436.75V436.812H555.193V438.109ZM564.193 432.383C564.193 433.305 564.126 434.13 563.99 434.859C563.86 435.589 563.646 436.206 563.35 436.711C563.058 437.216 562.68 437.602 562.217 437.867C561.753 438.133 561.191 438.266 560.529 438.266C559.915 438.266 559.378 438.133 558.92 437.867C558.467 437.602 558.089 437.216 557.787 436.711C557.49 436.206 557.266 435.589 557.115 434.859C556.969 434.13 556.896 433.305 556.896 432.383C556.896 431.461 556.962 430.635 557.092 429.906C557.227 429.177 557.438 428.562 557.725 428.062C558.016 427.557 558.391 427.172 558.85 426.906C559.313 426.641 559.873 426.508 560.529 426.508C561.149 426.508 561.688 426.641 562.146 426.906C562.605 427.167 562.985 427.549 563.287 428.055C563.589 428.555 563.816 429.169 563.967 429.898C564.118 430.628 564.193 431.456 564.193 432.383ZM558.342 432.383C558.342 433.164 558.381 433.846 558.459 434.43C558.537 435.013 558.662 435.5 558.834 435.891C559.006 436.276 559.23 436.568 559.506 436.766C559.787 436.958 560.128 437.055 560.529 437.055C560.93 437.055 561.271 436.958 561.553 436.766C561.834 436.573 562.063 436.284 562.24 435.898C562.423 435.513 562.553 435.029 562.631 434.445C562.714 433.857 562.756 433.169 562.756 432.383C562.756 431.602 562.714 430.919 562.631 430.336C562.553 429.753 562.423 429.268 562.24 428.883C562.063 428.497 561.834 428.208 561.553 428.016C561.271 427.823 560.93 427.727 560.529 427.727C560.128 427.727 559.787 427.823 559.506 428.016C559.23 428.208 559.006 428.497 558.834 428.883C558.662 429.268 558.537 429.753 558.459 430.336C558.381 430.919 558.342 431.602 558.342 432.383ZM572.451 429.359C572.451 429.74 572.391 430.086 572.271 430.398C572.152 430.711 571.982 430.982 571.764 431.211C571.55 431.44 571.292 431.63 570.99 431.781C570.688 431.927 570.352 432.031 569.982 432.094V432.141C570.904 432.255 571.605 432.549 572.084 433.023C572.563 433.492 572.803 434.104 572.803 434.859C572.803 435.359 572.717 435.818 572.545 436.234C572.378 436.651 572.123 437.01 571.779 437.312C571.436 437.615 571.001 437.849 570.475 438.016C569.949 438.182 569.326 438.266 568.607 438.266C568.04 438.266 567.503 438.221 566.998 438.133C566.498 438.044 566.027 437.883 565.584 437.648V436.32C566.037 436.56 566.527 436.745 567.053 436.875C567.584 437.005 568.092 437.07 568.576 437.07C569.055 437.07 569.469 437.018 569.818 436.914C570.167 436.81 570.454 436.661 570.678 436.469C570.907 436.276 571.074 436.039 571.178 435.758C571.287 435.477 571.342 435.161 571.342 434.812C571.342 434.458 571.271 434.156 571.131 433.906C570.995 433.651 570.8 433.443 570.545 433.281C570.29 433.115 569.977 432.992 569.607 432.914C569.243 432.836 568.829 432.797 568.365 432.797H567.326V431.617H568.365C568.787 431.617 569.162 431.565 569.49 431.461C569.818 431.357 570.092 431.208 570.311 431.016C570.535 430.823 570.704 430.594 570.818 430.328C570.933 430.062 570.99 429.771 570.99 429.453C570.99 429.182 570.943 428.94 570.85 428.727C570.756 428.513 570.623 428.333 570.451 428.188C570.279 428.036 570.074 427.922 569.834 427.844C569.594 427.766 569.329 427.727 569.037 427.727C568.48 427.727 567.988 427.815 567.561 427.992C567.139 428.164 566.735 428.391 566.35 428.672L565.631 427.695C565.829 427.534 566.048 427.383 566.287 427.242C566.532 427.102 566.798 426.979 567.084 426.875C567.37 426.766 567.675 426.68 567.998 426.617C568.326 426.555 568.673 426.523 569.037 426.523C569.6 426.523 570.092 426.594 570.514 426.734C570.941 426.875 571.298 427.073 571.584 427.328C571.87 427.578 572.087 427.878 572.232 428.227C572.378 428.57 572.451 428.948 572.451 429.359ZM576.748 438.109H575.311V426.688H581.693V427.953H576.748V432H581.389V433.258H576.748V438.109Z" fill="white"/>
<path d="M625.585 415.817H627.296C628.223 415.817 628.9 415.635 629.327 415.271C629.754 414.906 629.968 414.364 629.968 413.646C629.968 412.927 629.751 412.403 629.319 412.075C628.887 411.742 628.186 411.575 627.218 411.575H625.585V415.817ZM625.585 417.036V421.755H624.147V410.333H627.296C628.712 410.333 629.759 410.604 630.436 411.146C631.119 411.682 631.46 412.492 631.46 413.575C631.46 415.091 630.697 416.112 629.171 416.638L632.303 421.755H630.624L627.858 417.036H625.585ZM639.061 415.724H643.007V421.325C642.402 421.518 641.788 421.664 641.163 421.763C640.538 421.862 639.814 421.911 638.991 421.911C637.251 421.911 635.905 421.396 634.952 420.364C633.999 419.333 633.522 417.893 633.522 416.044C633.522 414.851 633.759 413.81 634.233 412.919C634.707 412.028 635.389 411.349 636.28 410.88C637.176 410.406 638.231 410.169 639.444 410.169C640.663 410.169 641.798 410.393 642.85 410.841L642.303 412.091C641.298 411.653 640.316 411.435 639.358 411.435C637.999 411.435 636.936 411.846 636.171 412.669C635.405 413.492 635.022 414.617 635.022 416.044C635.022 417.554 635.389 418.703 636.124 419.489C636.858 420.276 637.926 420.669 639.327 420.669C640.093 420.669 640.84 420.578 641.569 420.396V417.005H639.061V415.724ZM645.757 410.333H649.014C650.546 410.333 651.65 410.562 652.327 411.021C653.009 411.474 653.35 412.187 653.35 413.161C653.35 413.838 653.165 414.398 652.796 414.841C652.426 415.278 651.887 415.562 651.178 415.692V415.771C652.059 415.922 652.705 416.226 653.116 416.685C653.533 417.143 653.741 417.75 653.741 418.505C653.741 419.526 653.392 420.323 652.694 420.896C651.996 421.468 651.022 421.755 649.772 421.755H645.757V410.333ZM647.194 415.192H649.303C650.199 415.192 650.85 415.049 651.257 414.763C651.663 414.476 651.866 413.997 651.866 413.325C651.866 412.7 651.642 412.25 651.194 411.974C650.751 411.698 650.048 411.56 649.085 411.56H647.194V415.192ZM647.194 416.396V420.536H649.499C650.415 420.536 651.095 420.359 651.538 420.005C651.981 419.651 652.202 419.114 652.202 418.396C652.202 417.713 651.968 417.211 651.499 416.888C651.03 416.56 650.327 416.396 649.389 416.396H647.194Z" fill="white"/>
<path d="M630.655 432.383C630.655 433.305 630.587 434.13 630.452 434.859C630.322 435.589 630.108 436.206 629.811 436.711C629.52 437.216 629.142 437.602 628.678 437.867C628.215 438.133 627.652 438.266 626.991 438.266C626.376 438.266 625.84 438.133 625.382 437.867C624.928 437.602 624.551 437.216 624.249 436.711C623.952 436.206 623.728 435.589 623.577 434.859C623.431 434.13 623.358 433.305 623.358 432.383C623.358 431.461 623.423 430.635 623.553 429.906C623.689 429.177 623.9 428.562 624.186 428.062C624.478 427.557 624.853 427.172 625.311 426.906C625.775 426.641 626.335 426.508 626.991 426.508C627.611 426.508 628.15 426.641 628.608 426.906C629.066 427.167 629.447 427.549 629.749 428.055C630.051 428.555 630.277 429.169 630.428 429.898C630.58 430.628 630.655 431.456 630.655 432.383ZM624.803 432.383C624.803 433.164 624.843 433.846 624.921 434.43C624.999 435.013 625.124 435.5 625.296 435.891C625.468 436.276 625.691 436.568 625.968 436.766C626.249 436.958 626.59 437.055 626.991 437.055C627.392 437.055 627.733 436.958 628.014 436.766C628.296 436.573 628.525 436.284 628.702 435.898C628.884 435.513 629.014 435.029 629.093 434.445C629.176 433.857 629.218 433.169 629.218 432.383C629.218 431.602 629.176 430.919 629.093 430.336C629.014 429.753 628.884 429.268 628.702 428.883C628.525 428.497 628.296 428.208 628.014 428.016C627.733 427.823 627.392 427.727 626.991 427.727C626.59 427.727 626.249 427.823 625.968 428.016C625.691 428.208 625.468 428.497 625.296 428.883C625.124 429.268 624.999 429.753 624.921 430.336C624.843 430.919 624.803 431.602 624.803 432.383ZM655.538 429.359C655.538 429.74 655.478 430.086 655.358 430.398C655.238 430.711 655.069 430.982 654.85 431.211C654.637 431.44 654.379 431.63 654.077 431.781C653.775 431.927 653.439 432.031 653.069 432.094V432.141C653.991 432.255 654.691 432.549 655.171 433.023C655.65 433.492 655.889 434.104 655.889 434.859C655.889 435.359 655.803 435.818 655.632 436.234C655.465 436.651 655.21 437.01 654.866 437.312C654.522 437.615 654.087 437.849 653.561 438.016C653.035 438.182 652.413 438.266 651.694 438.266C651.126 438.266 650.59 438.221 650.085 438.133C649.585 438.044 649.113 437.883 648.671 437.648V436.32C649.124 436.56 649.613 436.745 650.139 436.875C650.671 437.005 651.178 437.07 651.663 437.07C652.142 437.07 652.556 437.018 652.905 436.914C653.254 436.81 653.54 436.661 653.764 436.469C653.994 436.276 654.16 436.039 654.264 435.758C654.374 435.477 654.428 435.161 654.428 434.812C654.428 434.458 654.358 434.156 654.218 433.906C654.082 433.651 653.887 433.443 653.632 433.281C653.376 433.115 653.064 432.992 652.694 432.914C652.33 432.836 651.915 432.797 651.452 432.797H650.413V431.617H651.452C651.874 431.617 652.249 431.565 652.577 431.461C652.905 431.357 653.178 431.208 653.397 431.016C653.621 430.823 653.79 430.594 653.905 430.328C654.02 430.062 654.077 429.771 654.077 429.453C654.077 429.182 654.03 428.94 653.936 428.727C653.843 428.513 653.71 428.333 653.538 428.188C653.366 428.036 653.16 427.922 652.921 427.844C652.681 427.766 652.415 427.727 652.124 427.727C651.566 427.727 651.074 427.815 650.647 427.992C650.225 428.164 649.822 428.391 649.436 428.672L648.718 427.695C648.915 427.534 649.134 427.383 649.374 427.242C649.619 427.102 649.884 426.979 650.171 426.875C650.457 426.766 650.762 426.68 651.085 426.617C651.413 426.555 651.759 426.523 652.124 426.523C652.686 426.523 653.178 426.594 653.6 426.734C654.027 426.875 654.384 427.073 654.671 427.328C654.957 427.578 655.173 427.878 655.319 428.227C655.465 428.57 655.538 428.948 655.538 429.359ZM664.718 438.109H657.593V436.891L660.327 433.914C660.718 433.492 661.066 433.107 661.374 432.758C661.681 432.409 661.941 432.068 662.155 431.734C662.374 431.401 662.54 431.068 662.655 430.734C662.77 430.396 662.827 430.029 662.827 429.633C662.827 429.326 662.783 429.055 662.694 428.82C662.606 428.586 662.478 428.388 662.311 428.227C662.15 428.06 661.957 427.935 661.733 427.852C661.509 427.768 661.259 427.727 660.983 427.727C660.488 427.727 660.04 427.828 659.639 428.031C659.244 428.229 658.866 428.484 658.507 428.797L657.71 427.867C657.918 427.68 658.142 427.505 658.382 427.344C658.621 427.177 658.879 427.034 659.155 426.914C659.431 426.794 659.723 426.701 660.03 426.633C660.337 426.56 660.66 426.523 660.999 426.523C661.499 426.523 661.949 426.594 662.35 426.734C662.757 426.875 663.1 427.078 663.382 427.344C663.663 427.604 663.879 427.924 664.03 428.305C664.186 428.68 664.264 429.104 664.264 429.578C664.264 430.021 664.194 430.443 664.053 430.844C663.918 431.245 663.728 431.641 663.483 432.031C663.244 432.417 662.955 432.805 662.616 433.195C662.283 433.586 661.921 433.992 661.53 434.414L659.335 436.75V436.812H664.718V438.109ZM683.163 433.227C683.163 432.68 683.189 432.135 683.241 431.594C683.298 431.052 683.395 430.534 683.53 430.039C683.671 429.539 683.861 429.076 684.1 428.648C684.34 428.221 684.645 427.852 685.014 427.539C685.384 427.221 685.827 426.974 686.343 426.797C686.858 426.615 687.462 426.523 688.155 426.523C688.254 426.523 688.363 426.526 688.483 426.531C688.603 426.536 688.723 426.547 688.843 426.562C688.968 426.573 689.085 426.589 689.194 426.609C689.309 426.625 689.41 426.646 689.499 426.672V427.883C689.316 427.82 689.111 427.773 688.882 427.742C688.652 427.711 688.426 427.695 688.202 427.695C687.733 427.695 687.319 427.753 686.96 427.867C686.606 427.977 686.298 428.133 686.038 428.336C685.777 428.539 685.559 428.781 685.382 429.062C685.21 429.344 685.069 429.656 684.96 430C684.85 430.339 684.77 430.701 684.718 431.086C684.665 431.471 684.632 431.872 684.616 432.289H684.71C684.814 432.102 684.939 431.927 685.085 431.766C685.236 431.599 685.41 431.458 685.608 431.344C685.806 431.224 686.027 431.13 686.272 431.062C686.522 430.995 686.801 430.961 687.108 430.961C687.603 430.961 688.051 431.039 688.452 431.195C688.853 431.346 689.194 431.57 689.475 431.867C689.757 432.164 689.973 432.529 690.124 432.961C690.28 433.388 690.358 433.878 690.358 434.43C690.358 435.023 690.277 435.557 690.116 436.031C689.955 436.505 689.723 436.909 689.421 437.242C689.119 437.57 688.754 437.823 688.327 438C687.9 438.177 687.421 438.266 686.889 438.266C686.369 438.266 685.879 438.164 685.421 437.961C684.968 437.758 684.574 437.448 684.241 437.031C683.908 436.615 683.645 436.091 683.452 435.461C683.259 434.831 683.163 434.086 683.163 433.227ZM686.874 437.07C687.186 437.07 687.47 437.018 687.725 436.914C687.986 436.805 688.21 436.643 688.397 436.43C688.585 436.211 688.728 435.938 688.827 435.609C688.931 435.276 688.983 434.883 688.983 434.43C688.983 434.065 688.939 433.74 688.85 433.453C688.767 433.161 688.639 432.914 688.468 432.711C688.296 432.508 688.08 432.352 687.819 432.242C687.564 432.133 687.264 432.078 686.921 432.078C686.572 432.078 686.251 432.141 685.96 432.266C685.673 432.385 685.428 432.544 685.225 432.742C685.022 432.935 684.863 433.156 684.749 433.406C684.639 433.656 684.585 433.906 684.585 434.156C684.585 434.505 684.632 434.854 684.725 435.203C684.824 435.547 684.968 435.857 685.155 436.133C685.348 436.409 685.587 436.635 685.874 436.812C686.16 436.984 686.494 437.07 686.874 437.07ZM698.6 429.359C698.6 429.74 698.54 430.086 698.421 430.398C698.301 430.711 698.132 430.982 697.913 431.211C697.699 431.44 697.441 431.63 697.139 431.781C696.837 431.927 696.501 432.031 696.132 432.094V432.141C697.053 432.255 697.754 432.549 698.233 433.023C698.712 433.492 698.952 434.104 698.952 434.859C698.952 435.359 698.866 435.818 698.694 436.234C698.527 436.651 698.272 437.01 697.928 437.312C697.585 437.615 697.15 437.849 696.624 438.016C696.098 438.182 695.475 438.266 694.757 438.266C694.189 438.266 693.652 438.221 693.147 438.133C692.647 438.044 692.176 437.883 691.733 437.648V436.32C692.186 436.56 692.676 436.745 693.202 436.875C693.733 437.005 694.241 437.07 694.725 437.07C695.205 437.07 695.619 437.018 695.968 436.914C696.316 436.81 696.603 436.661 696.827 436.469C697.056 436.276 697.223 436.039 697.327 435.758C697.436 435.477 697.491 435.161 697.491 434.812C697.491 434.458 697.421 434.156 697.28 433.906C697.145 433.651 696.949 433.443 696.694 433.281C696.439 433.115 696.126 432.992 695.757 432.914C695.392 432.836 694.978 432.797 694.514 432.797H693.475V431.617H694.514C694.936 431.617 695.311 431.565 695.639 431.461C695.968 431.357 696.241 431.208 696.46 431.016C696.684 430.823 696.853 430.594 696.968 430.328C697.082 430.062 697.139 429.771 697.139 429.453C697.139 429.182 697.093 428.94 696.999 428.727C696.905 428.513 696.772 428.333 696.6 428.188C696.428 428.036 696.223 427.922 695.983 427.844C695.744 427.766 695.478 427.727 695.186 427.727C694.629 427.727 694.137 427.815 693.71 427.992C693.288 428.164 692.884 428.391 692.499 428.672L691.78 427.695C691.978 427.534 692.197 427.383 692.436 427.242C692.681 427.102 692.947 426.979 693.233 426.875C693.52 426.766 693.824 426.68 694.147 426.617C694.475 426.555 694.822 426.523 695.186 426.523C695.749 426.523 696.241 426.594 696.663 426.734C697.09 426.875 697.447 427.073 697.733 427.328C698.02 427.578 698.236 427.878 698.382 428.227C698.527 428.57 698.6 428.948 698.6 429.359Z" fill="white"/>
<path d="M0.259766 299.841H494.409V455.66H50.2598C22.6456 455.66 0.259766 433.274 0.259766 405.66V299.841Z" fill="#F5F6FA"/>
<path d="M32.0289 344.839C33.3258 344.839 34.2672 344.492 34.8531 343.796C35.4469 343.093 35.7438 341.968 35.7438 340.421V339.917C35.7438 338.199 35.4469 336.949 34.8531 336.167C34.2594 335.386 33.3024 334.996 31.9821 334.996C30.9039 334.996 30.068 335.425 29.4742 336.285C28.8883 337.136 28.5953 338.355 28.5953 339.941C28.5953 341.535 28.8805 342.75 29.4508 343.585C30.0289 344.421 30.8883 344.839 32.0289 344.839ZM35.7203 346.21L35.7906 344.628H35.6969C34.8297 345.917 33.5016 346.562 31.7125 346.562C30.0485 346.562 28.7477 345.984 27.8102 344.828C26.8805 343.664 26.4156 342.027 26.4156 339.917C26.4156 337.847 26.8844 336.214 27.8219 335.019C28.7672 333.824 30.0563 333.226 31.6891 333.226C33.4313 333.226 34.775 333.875 35.7203 335.171H35.8492L36.1305 333.46H37.8063V346.539C37.8063 348.382 37.3375 349.769 36.4 350.699C35.4703 351.628 34.0211 352.093 32.0524 352.093C30.1774 352.093 28.6344 351.82 27.4235 351.273V349.328C28.6735 350 30.2555 350.335 32.1696 350.335C33.2633 350.335 34.1266 350.015 34.7594 349.375C35.4 348.734 35.7203 347.847 35.7203 346.714V346.21ZM47.8961 333.226C48.4664 333.226 48.9703 333.273 49.4078 333.367L49.15 335.312C48.6735 335.203 48.2086 335.148 47.7555 335.148C47.0758 335.148 46.443 335.335 45.8571 335.71C45.2789 336.085 44.8258 336.605 44.4977 337.269C44.1696 337.925 44.0055 338.656 44.0055 339.46V346.328H41.8961V333.46H43.6305L43.8649 335.816H43.9586C44.4508 334.964 45.0328 334.32 45.7047 333.882C46.3766 333.445 47.1071 333.226 47.8961 333.226ZM59.5211 346.328L59.111 344.5H59.0172C58.3766 345.304 57.736 345.851 57.0953 346.14C56.4625 346.421 55.6617 346.562 54.693 346.562C53.4274 346.562 52.4352 346.23 51.7164 345.566C50.9977 344.902 50.6383 343.964 50.6383 342.753C50.6383 340.144 52.6969 338.777 56.8141 338.652L58.9938 338.57V337.808C58.9938 336.832 58.7828 336.113 58.361 335.652C57.9391 335.183 57.2633 334.949 56.3336 334.949C55.6539 334.949 55.0094 335.05 54.4 335.253C53.7985 335.457 53.2321 335.683 52.7008 335.933L52.0563 334.351C52.7047 334.007 53.4117 333.738 54.1774 333.542C54.943 333.347 55.7008 333.25 56.4508 333.25C58.0055 333.25 59.1617 333.593 59.9196 334.281C60.6774 334.968 61.0563 336.062 61.0563 337.562V346.328H59.5211ZM55.1735 344.863C56.3531 344.863 57.2789 344.546 57.9508 343.914C58.6305 343.273 58.9703 342.367 58.9703 341.195V340.035L57.0719 340.117C55.5953 340.171 54.5172 340.406 53.8375 340.82C53.1656 341.234 52.8297 341.886 52.8297 342.777C52.8297 343.449 53.0328 343.964 53.4391 344.324C53.8531 344.683 54.4313 344.863 55.1735 344.863ZM63.0367 333.46H65.2985L68.0758 340.785C68.6617 342.378 69.0211 343.546 69.1539 344.289H69.2477C69.318 344 69.4781 343.46 69.7281 342.671C69.9781 341.875 70.1891 341.238 70.361 340.761L72.9742 333.46H75.2477L69.7047 348.109C69.1656 349.531 68.525 350.55 67.7828 351.167C67.0406 351.785 66.1227 352.093 65.0289 352.093C64.443 352.093 63.861 352.027 63.2828 351.894V350.218C63.6735 350.312 64.1422 350.359 64.6891 350.359C65.361 350.359 65.9313 350.171 66.4 349.796C66.8688 349.429 67.2516 348.859 67.5485 348.085L68.2164 346.375L63.0367 333.46Z" fill="#00203F"/>
<path d="M35.3805 421.82H33.943V416.492H28.0836V421.82H26.6461V410.398H28.0836V415.226H33.943V410.398H35.3805V421.82ZM41.9586 421.976C40.6722 421.976 39.6617 421.588 38.9274 420.812C38.1982 420.031 37.8336 418.958 37.8336 417.593C37.8336 416.218 38.1748 415.125 38.8571 414.312C39.5393 413.494 40.4612 413.085 41.6227 413.085C42.7008 413.085 43.5602 413.434 44.2008 414.132C44.8414 414.825 45.1617 415.765 45.1617 416.953V417.804H39.2867C39.3128 418.778 39.5602 419.518 40.0289 420.023C40.4977 420.528 41.1617 420.781 42.0211 420.781C42.4795 420.781 42.9143 420.742 43.3258 420.664C43.7373 420.58 44.219 420.421 44.7711 420.187V421.421C44.2972 421.625 43.8518 421.768 43.4352 421.851C43.0185 421.934 42.5263 421.976 41.9586 421.976ZM41.6071 414.234C40.9352 414.234 40.4039 414.45 40.0133 414.882C39.6227 415.315 39.3909 415.916 39.318 416.687H43.6852C43.6748 415.885 43.4899 415.276 43.1305 414.859C42.7711 414.442 42.2633 414.234 41.6071 414.234ZM49.2164 417.437L46.2555 413.242H47.8571L50.068 416.476L52.2555 413.242H53.8414L50.8805 417.437L54.0055 421.82H52.4039L50.068 418.398L47.7008 421.82H46.1149L49.2164 417.437Z" fill="#00203F"/>
<path d="M32.7711 431.805L32.3102 434.234H34.4352V435.289H32.0992L31.5602 438.109H30.4352L30.9899 435.289H28.7633L28.2164 438.109H27.1149L27.6305 435.289H25.6383V434.234H27.8336L28.318 431.805H26.2164V430.758H28.5055L29.0367 427.992H30.1617L29.6383 430.758H31.8805L32.4196 427.992H33.5211L32.9821 430.758H34.9899V431.805H32.7711ZM28.9586 434.234H31.193L31.6617 431.805H29.4352L28.9586 434.234ZM38.5367 438.109H37.0992V426.688H43.4821V427.953H38.5367V432H43.1774V433.258H38.5367V438.109ZM48.1149 431.102C48.6305 431.102 49.1097 431.174 49.5524 431.32C50.0003 431.461 50.3883 431.672 50.7164 431.953C51.0498 432.234 51.3102 432.583 51.4977 433C51.6852 433.417 51.7789 433.898 51.7789 434.445C51.7789 435.039 51.6904 435.573 51.5133 436.047C51.3362 436.521 51.0732 436.922 50.7242 437.25C50.3753 437.578 49.943 437.831 49.4274 438.008C48.917 438.18 48.3284 438.266 47.6617 438.266C47.3961 438.266 47.1331 438.253 46.8727 438.227C46.6175 438.201 46.3701 438.161 46.1305 438.109C45.8961 438.062 45.6722 438 45.4586 437.922C45.2451 437.844 45.0524 437.753 44.8805 437.648V436.305C45.0524 436.424 45.2529 436.531 45.4821 436.625C45.7164 436.719 45.9612 436.797 46.2164 436.859C46.4716 436.922 46.7268 436.971 46.9821 437.008C47.2425 437.039 47.4821 437.055 47.7008 437.055C48.1123 437.055 48.4795 437.008 48.8024 436.914C49.1253 436.815 49.3987 436.664 49.6227 436.461C49.8466 436.258 50.0185 436.003 50.1383 435.695C50.2581 435.388 50.318 435.023 50.318 434.602C50.318 433.857 50.0888 433.289 49.6305 432.898C49.1722 432.503 48.5055 432.305 47.6305 432.305C47.4899 432.305 47.3362 432.312 47.1696 432.328C47.0081 432.339 46.844 432.354 46.6774 432.375C46.5159 432.396 46.3597 432.419 46.2086 432.445C46.0628 432.466 45.9352 432.487 45.8258 432.508L45.1227 432.062L45.5524 426.688H50.943V427.984H46.7867L46.4821 431.258C46.6487 431.227 46.8675 431.193 47.1383 431.156C47.4143 431.12 47.7399 431.102 48.1149 431.102ZM55.6617 438.109H54.2242V426.688H60.6071V427.953H55.6617V432H60.3024V433.258H55.6617V438.109ZM61.8649 433.227C61.8649 432.68 61.8909 432.135 61.943 431.594C62.0003 431.052 62.0966 430.534 62.2321 430.039C62.3727 429.539 62.5628 429.076 62.8024 428.648C63.042 428.221 63.3466 427.852 63.7164 427.539C64.0862 427.221 64.5289 426.974 65.0446 426.797C65.5602 426.615 66.1643 426.523 66.8571 426.523C66.956 426.523 67.0654 426.526 67.1852 426.531C67.305 426.536 67.4248 426.547 67.5446 426.562C67.6696 426.573 67.7867 426.589 67.8961 426.609C68.0107 426.625 68.1123 426.646 68.2008 426.672V427.883C68.0185 427.82 67.8128 427.773 67.5836 427.742C67.3545 427.711 67.1279 427.695 66.9039 427.695C66.4352 427.695 66.0211 427.753 65.6617 427.867C65.3076 427.977 65.0003 428.133 64.7399 428.336C64.4795 428.539 64.2607 428.781 64.0836 429.062C63.9117 429.344 63.7711 429.656 63.6617 430C63.5524 430.339 63.4716 430.701 63.4196 431.086C63.3675 431.471 63.3336 431.872 63.318 432.289H63.4117C63.5159 432.102 63.6409 431.927 63.7867 431.766C63.9378 431.599 64.1123 431.458 64.3102 431.344C64.5081 431.224 64.7295 431.13 64.9742 431.062C65.2242 430.995 65.5029 430.961 65.8102 430.961C66.305 430.961 66.7529 431.039 67.1539 431.195C67.555 431.346 67.8961 431.57 68.1774 431.867C68.4586 432.164 68.6748 432.529 68.8258 432.961C68.9821 433.388 69.0602 433.878 69.0602 434.43C69.0602 435.023 68.9795 435.557 68.818 436.031C68.6565 436.505 68.4248 436.909 68.1227 437.242C67.8206 437.57 67.456 437.823 67.0289 438C66.6018 438.177 66.1227 438.266 65.5914 438.266C65.0706 438.266 64.581 438.164 64.1227 437.961C63.6696 437.758 63.2763 437.448 62.943 437.031C62.6097 436.615 62.3466 436.091 62.1539 435.461C61.9612 434.831 61.8649 434.086 61.8649 433.227ZM65.5758 437.07C65.8883 437.07 66.1722 437.018 66.4274 436.914C66.6878 436.805 66.9117 436.643 67.0992 436.43C67.2867 436.211 67.43 435.938 67.5289 435.609C67.6331 435.276 67.6852 434.883 67.6852 434.43C67.6852 434.065 67.6409 433.74 67.5524 433.453C67.469 433.161 67.3414 432.914 67.1696 432.711C66.9977 432.508 66.7815 432.352 66.5211 432.242C66.2659 432.133 65.9664 432.078 65.6227 432.078C65.2737 432.078 64.9534 432.141 64.6617 432.266C64.3753 432.385 64.1305 432.544 63.9274 432.742C63.7242 432.935 63.5654 433.156 63.4508 433.406C63.3414 433.656 63.2867 433.906 63.2867 434.156C63.2867 434.505 63.3336 434.854 63.4274 435.203C63.5263 435.547 63.6696 435.857 63.8571 436.133C64.0498 436.409 64.2893 436.635 64.5758 436.812C64.8623 436.984 65.1956 437.07 65.5758 437.07ZM72.7867 438.109H71.3492V426.688H77.7321V427.953H72.7867V432H77.4274V433.258H72.7867V438.109ZM86.6696 438.109L85.2946 434.57H80.7633L79.4039 438.109H77.9508L82.4117 426.641H83.7086L88.1617 438.109H86.6696ZM84.8649 433.297L83.5836 429.836L83.0367 428.125C82.8805 428.75 82.7164 429.32 82.5446 429.836L81.2477 433.297H84.8649Z" fill="#00203F"/>
<path d="M202.284 415.817H203.995C204.922 415.817 205.599 415.635 206.026 415.271C206.453 414.906 206.667 414.364 206.667 413.646C206.667 412.927 206.451 412.403 206.018 412.075C205.586 411.742 204.885 411.575 203.917 411.575H202.284V415.817ZM202.284 417.036V421.755H200.846V410.333H203.995C205.412 410.333 206.458 410.604 207.135 411.146C207.818 411.682 208.159 412.492 208.159 413.575C208.159 415.091 207.396 416.112 205.87 416.638L209.003 421.755H207.323L204.557 417.036H202.284ZM215.76 415.724H219.706V421.325C219.102 421.518 218.487 421.664 217.862 421.763C217.237 421.862 216.513 421.911 215.69 421.911C213.951 421.911 212.604 421.396 211.651 420.364C210.698 419.333 210.221 417.893 210.221 416.044C210.221 414.851 210.458 413.81 210.932 412.919C211.406 412.028 212.089 411.349 212.979 410.88C213.875 410.406 214.93 410.169 216.143 410.169C217.362 410.169 218.497 410.393 219.55 410.841L219.003 412.091C217.997 411.653 217.016 411.435 216.057 411.435C214.698 411.435 213.635 411.846 212.87 412.669C212.104 413.492 211.721 414.617 211.721 416.044C211.721 417.554 212.089 418.703 212.823 419.489C213.557 420.276 214.625 420.669 216.026 420.669C216.792 420.669 217.539 420.578 218.268 420.396V417.005H215.76V415.724ZM222.456 410.333H225.714C227.245 410.333 228.349 410.562 229.026 411.021C229.708 411.474 230.05 412.187 230.05 413.161C230.05 413.838 229.865 414.398 229.495 414.841C229.125 415.278 228.586 415.562 227.878 415.692V415.771C228.758 415.922 229.404 416.226 229.815 416.685C230.232 417.143 230.44 417.75 230.44 418.505C230.44 419.526 230.091 420.323 229.393 420.896C228.695 421.468 227.721 421.755 226.471 421.755H222.456V410.333ZM223.893 415.192H226.003C226.899 415.192 227.55 415.049 227.956 414.763C228.362 414.476 228.565 413.997 228.565 413.325C228.565 412.7 228.341 412.25 227.893 411.974C227.451 411.698 226.747 411.56 225.784 411.56H223.893V415.192ZM223.893 416.396V420.536H226.198C227.115 420.536 227.794 420.359 228.237 420.005C228.68 419.651 228.901 419.114 228.901 418.396C228.901 417.713 228.667 417.211 228.198 416.888C227.729 416.56 227.026 416.396 226.089 416.396H223.893Z" fill="#00203F"/>
<path d="M207.167 437.895H200.042V436.676L202.776 433.7C203.167 433.278 203.516 432.892 203.823 432.543C204.13 432.194 204.391 431.853 204.604 431.52C204.823 431.187 204.99 430.853 205.104 430.52C205.219 430.181 205.276 429.814 205.276 429.418C205.276 429.111 205.232 428.84 205.143 428.606C205.055 428.372 204.927 428.174 204.76 428.012C204.599 427.846 204.406 427.721 204.182 427.637C203.958 427.554 203.708 427.512 203.432 427.512C202.938 427.512 202.49 427.614 202.089 427.817C201.693 428.015 201.315 428.27 200.956 428.583L200.159 427.653C200.367 427.465 200.591 427.291 200.831 427.129C201.07 426.963 201.328 426.819 201.604 426.7C201.88 426.58 202.172 426.486 202.479 426.418C202.787 426.346 203.109 426.309 203.448 426.309C203.948 426.309 204.399 426.379 204.8 426.52C205.206 426.661 205.55 426.864 205.831 427.129C206.112 427.39 206.328 427.71 206.479 428.09C206.635 428.465 206.714 428.89 206.714 429.364C206.714 429.806 206.643 430.228 206.503 430.629C206.367 431.03 206.177 431.426 205.932 431.817C205.693 432.202 205.404 432.59 205.065 432.981C204.732 433.372 204.37 433.778 203.979 434.2L201.784 436.536V436.598H207.167V437.895ZM216.596 435.333H214.932V437.895H213.557V435.333H208.284V434.09L213.464 426.411H214.932V434.036H216.596V435.333ZM213.557 434.036V431.254C213.557 430.963 213.56 430.658 213.565 430.34C213.576 430.017 213.586 429.705 213.596 429.403C213.607 429.096 213.617 428.809 213.628 428.543C213.643 428.278 213.654 428.056 213.659 427.879H213.589C213.552 427.984 213.505 428.101 213.448 428.231C213.396 428.356 213.336 428.484 213.268 428.614C213.206 428.739 213.141 428.861 213.073 428.981C213.005 429.101 212.943 429.202 212.885 429.286L209.675 434.036H213.557ZM221.175 430.887C221.69 430.887 222.169 430.96 222.612 431.106C223.06 431.247 223.448 431.458 223.776 431.739C224.109 432.02 224.37 432.369 224.557 432.786C224.745 433.202 224.839 433.684 224.839 434.231C224.839 434.825 224.75 435.359 224.573 435.833C224.396 436.306 224.133 436.708 223.784 437.036C223.435 437.364 223.003 437.616 222.487 437.793C221.977 437.965 221.388 438.051 220.721 438.051C220.456 438.051 220.193 438.038 219.932 438.012C219.677 437.986 219.43 437.947 219.19 437.895C218.956 437.848 218.732 437.786 218.518 437.708C218.305 437.629 218.112 437.538 217.94 437.434V436.09C218.112 436.21 218.313 436.317 218.542 436.411C218.776 436.504 219.021 436.583 219.276 436.645C219.531 436.708 219.787 436.757 220.042 436.793C220.302 436.825 220.542 436.84 220.76 436.84C221.172 436.84 221.539 436.793 221.862 436.7C222.185 436.601 222.458 436.45 222.682 436.247C222.906 436.043 223.078 435.788 223.198 435.481C223.318 435.174 223.378 434.809 223.378 434.387C223.378 433.642 223.149 433.075 222.69 432.684C222.232 432.288 221.565 432.09 220.69 432.09C220.55 432.09 220.396 432.098 220.229 432.114C220.068 432.124 219.904 432.14 219.737 432.161C219.576 432.181 219.419 432.205 219.268 432.231C219.122 432.252 218.995 432.273 218.885 432.293L218.182 431.848L218.612 426.473H224.003V427.77H219.846L219.542 431.043C219.708 431.012 219.927 430.978 220.198 430.942C220.474 430.905 220.8 430.887 221.175 430.887ZM250.229 437.895H243.104V436.676L245.839 433.7C246.229 433.278 246.578 432.892 246.885 432.543C247.193 432.194 247.453 431.853 247.667 431.52C247.885 431.187 248.052 430.853 248.167 430.52C248.281 430.181 248.339 429.814 248.339 429.418C248.339 429.111 248.294 428.84 248.206 428.606C248.117 428.372 247.99 428.174 247.823 428.012C247.662 427.846 247.469 427.721 247.245 427.637C247.021 427.554 246.771 427.512 246.495 427.512C246 427.512 245.552 427.614 245.151 427.817C244.755 428.015 244.378 428.27 244.018 428.583L243.221 427.653C243.43 427.465 243.654 427.291 243.893 427.129C244.133 426.963 244.391 426.819 244.667 426.7C244.943 426.58 245.234 426.486 245.542 426.418C245.849 426.346 246.172 426.309 246.51 426.309C247.01 426.309 247.461 426.379 247.862 426.52C248.268 426.661 248.612 426.864 248.893 427.129C249.175 427.39 249.391 427.71 249.542 428.09C249.698 428.465 249.776 428.89 249.776 429.364C249.776 429.806 249.706 430.228 249.565 430.629C249.43 431.03 249.24 431.426 248.995 431.817C248.755 432.202 248.466 432.59 248.128 432.981C247.794 433.372 247.432 433.778 247.042 434.2L244.846 436.536V436.598H250.229V437.895ZM259.659 435.333H257.995V437.895H256.62V435.333H251.346V434.09L256.526 426.411H257.995V434.036H259.659V435.333ZM256.62 434.036V431.254C256.62 430.963 256.622 430.658 256.628 430.34C256.638 430.017 256.649 429.705 256.659 429.403C256.669 429.096 256.68 428.809 256.69 428.543C256.706 428.278 256.716 428.056 256.721 427.879H256.651C256.615 427.984 256.568 428.101 256.51 428.231C256.458 428.356 256.399 428.484 256.331 428.614C256.268 428.739 256.203 428.861 256.135 428.981C256.068 429.101 256.005 429.202 255.948 429.286L252.737 434.036H256.62ZM260.862 433.012C260.862 432.465 260.888 431.921 260.94 431.379C260.997 430.838 261.094 430.319 261.229 429.825C261.37 429.325 261.56 428.861 261.8 428.434C262.039 428.007 262.344 427.637 262.714 427.325C263.083 427.007 263.526 426.76 264.042 426.583C264.557 426.4 265.162 426.309 265.854 426.309C265.953 426.309 266.063 426.312 266.182 426.317C266.302 426.322 266.422 426.333 266.542 426.348C266.667 426.359 266.784 426.374 266.893 426.395C267.008 426.411 267.109 426.431 267.198 426.458V427.668C267.016 427.606 266.81 427.559 266.581 427.528C266.352 427.497 266.125 427.481 265.901 427.481C265.432 427.481 265.018 427.538 264.659 427.653C264.305 427.762 263.997 427.918 263.737 428.122C263.477 428.325 263.258 428.567 263.081 428.848C262.909 429.129 262.768 429.442 262.659 429.786C262.55 430.124 262.469 430.486 262.417 430.872C262.365 431.257 262.331 431.658 262.315 432.075H262.409C262.513 431.887 262.638 431.713 262.784 431.551C262.935 431.385 263.109 431.244 263.307 431.129C263.505 431.01 263.727 430.916 263.971 430.848C264.221 430.78 264.5 430.747 264.807 430.747C265.302 430.747 265.75 430.825 266.151 430.981C266.552 431.132 266.893 431.356 267.175 431.653C267.456 431.95 267.672 432.314 267.823 432.747C267.979 433.174 268.057 433.663 268.057 434.215C268.057 434.809 267.977 435.343 267.815 435.817C267.654 436.291 267.422 436.694 267.12 437.028C266.818 437.356 266.453 437.609 266.026 437.786C265.599 437.963 265.12 438.051 264.589 438.051C264.068 438.051 263.578 437.95 263.12 437.747C262.667 437.543 262.274 437.234 261.94 436.817C261.607 436.4 261.344 435.877 261.151 435.247C260.958 434.616 260.862 433.872 260.862 433.012ZM264.573 436.856C264.885 436.856 265.169 436.804 265.425 436.7C265.685 436.59 265.909 436.429 266.096 436.215C266.284 435.997 266.427 435.723 266.526 435.395C266.63 435.062 266.682 434.668 266.682 434.215C266.682 433.851 266.638 433.525 266.55 433.239C266.466 432.947 266.339 432.7 266.167 432.497C265.995 432.293 265.779 432.137 265.518 432.028C265.263 431.918 264.964 431.864 264.62 431.864C264.271 431.864 263.951 431.926 263.659 432.051C263.372 432.171 263.128 432.33 262.925 432.528C262.721 432.721 262.563 432.942 262.448 433.192C262.339 433.442 262.284 433.692 262.284 433.942C262.284 434.291 262.331 434.64 262.425 434.989C262.524 435.333 262.667 435.642 262.854 435.918C263.047 436.194 263.287 436.421 263.573 436.598C263.859 436.77 264.193 436.856 264.573 436.856ZM293.292 437.895H286.167V436.676L288.901 433.7C289.292 433.278 289.641 432.892 289.948 432.543C290.255 432.194 290.516 431.853 290.729 431.52C290.948 431.187 291.115 430.853 291.229 430.52C291.344 430.181 291.401 429.814 291.401 429.418C291.401 429.111 291.357 428.84 291.268 428.606C291.18 428.372 291.052 428.174 290.885 428.012C290.724 427.846 290.531 427.721 290.307 427.637C290.083 427.554 289.833 427.512 289.557 427.512C289.063 427.512 288.615 427.614 288.214 427.817C287.818 428.015 287.44 428.27 287.081 428.583L286.284 427.653C286.492 427.465 286.716 427.291 286.956 427.129C287.195 426.963 287.453 426.819 287.729 426.7C288.005 426.58 288.297 426.486 288.604 426.418C288.912 426.346 289.234 426.309 289.573 426.309C290.073 426.309 290.524 426.379 290.925 426.52C291.331 426.661 291.675 426.864 291.956 427.129C292.237 427.39 292.453 427.71 292.604 428.09C292.76 428.465 292.839 428.89 292.839 429.364C292.839 429.806 292.768 430.228 292.628 430.629C292.492 431.03 292.302 431.426 292.057 431.817C291.818 432.202 291.529 432.59 291.19 432.981C290.857 433.372 290.495 433.778 290.104 434.2L287.909 436.536V436.598H293.292V437.895ZM298.487 430.887C299.003 430.887 299.482 430.96 299.925 431.106C300.372 431.247 300.76 431.458 301.089 431.739C301.422 432.02 301.682 432.369 301.87 432.786C302.057 433.202 302.151 433.684 302.151 434.231C302.151 434.825 302.063 435.359 301.885 435.833C301.708 436.306 301.445 436.708 301.096 437.036C300.747 437.364 300.315 437.616 299.8 437.793C299.289 437.965 298.701 438.051 298.034 438.051C297.768 438.051 297.505 438.038 297.245 438.012C296.99 437.986 296.742 437.947 296.503 437.895C296.268 437.848 296.044 437.786 295.831 437.708C295.617 437.629 295.425 437.538 295.253 437.434V436.09C295.425 436.21 295.625 436.317 295.854 436.411C296.089 436.504 296.333 436.583 296.589 436.645C296.844 436.708 297.099 436.757 297.354 436.793C297.615 436.825 297.854 436.84 298.073 436.84C298.484 436.84 298.852 436.793 299.175 436.7C299.497 436.601 299.771 436.45 299.995 436.247C300.219 436.043 300.391 435.788 300.51 435.481C300.63 435.174 300.69 434.809 300.69 434.387C300.69 433.642 300.461 433.075 300.003 432.684C299.544 432.288 298.878 432.09 298.003 432.09C297.862 432.09 297.708 432.098 297.542 432.114C297.38 432.124 297.216 432.14 297.05 432.161C296.888 432.181 296.732 432.205 296.581 432.231C296.435 432.252 296.307 432.273 296.198 432.293L295.495 431.848L295.925 426.473H301.315V427.77H297.159L296.854 431.043C297.021 431.012 297.24 430.978 297.51 430.942C297.787 430.905 298.112 430.887 298.487 430.887ZM311.104 432.168C311.104 433.09 311.037 433.916 310.901 434.645C310.771 435.374 310.557 435.991 310.26 436.497C309.969 437.002 309.591 437.387 309.128 437.653C308.664 437.918 308.102 438.051 307.44 438.051C306.826 438.051 306.289 437.918 305.831 437.653C305.378 437.387 305 437.002 304.698 436.497C304.401 435.991 304.177 435.374 304.026 434.645C303.88 433.916 303.807 433.09 303.807 432.168C303.807 431.247 303.872 430.421 304.003 429.692C304.138 428.963 304.349 428.348 304.635 427.848C304.927 427.343 305.302 426.958 305.76 426.692C306.224 426.426 306.784 426.293 307.44 426.293C308.06 426.293 308.599 426.426 309.057 426.692C309.516 426.952 309.896 427.335 310.198 427.84C310.5 428.34 310.727 428.955 310.878 429.684C311.029 430.413 311.104 431.241 311.104 432.168ZM305.253 432.168C305.253 432.95 305.292 433.632 305.37 434.215C305.448 434.799 305.573 435.286 305.745 435.676C305.917 436.062 306.141 436.353 306.417 436.551C306.698 436.744 307.039 436.84 307.44 436.84C307.841 436.84 308.182 436.744 308.464 436.551C308.745 436.359 308.974 436.069 309.151 435.684C309.333 435.299 309.464 434.814 309.542 434.231C309.625 433.642 309.667 432.955 309.667 432.168C309.667 431.387 309.625 430.705 309.542 430.122C309.464 429.538 309.333 429.054 309.151 428.668C308.974 428.283 308.745 427.994 308.464 427.801C308.182 427.609 307.841 427.512 307.44 427.512C307.039 427.512 306.698 427.609 306.417 427.801C306.141 427.994 305.917 428.283 305.745 428.668C305.573 429.054 305.448 429.538 305.37 430.122C305.292 430.705 305.253 431.387 305.253 432.168Z" fill="#00203F"/>
</svg>
